<svg width="48" height="48" viewBox="0 0 48 48" fill="none" xmlns="http://www.w3.org/2000/svg">
<g clip-path="url(#clip0_1754_4008)">
<path opacity="0.7" d="M42.0552 30.9239V32.853C42.0552 33.3708 41.6355 33.7905 41.1177 33.7905H30.0552C29.5374 33.7905 29.1177 33.3708 29.1177 32.853V19.5292L35.5864 13.647L42.0552 19.5292V27.6423" stroke="#AB6939" stroke-width="1.2" stroke-miterlimit="10" stroke-linecap="round" stroke-linejoin="round"/>
<path opacity="0.7" d="M33.6694 26.7667V33.7905H37.5037V26.7667C37.5037 26.4001 37.2065 26.1029 36.8399 26.1029H34.3333C33.9666 26.1029 33.6694 26.4001 33.6694 26.7667Z" stroke="#AB6939" stroke-width="1.2" stroke-miterlimit="10" stroke-linecap="round" stroke-linejoin="round"/>
<path opacity="0.7" d="M26.8213 21.6172L35.5863 13.647L44.3512 21.6172" stroke="#AB6939" stroke-width="1.2" stroke-miterlimit="10" stroke-linecap="round" stroke-linejoin="round"/>
<path opacity="0.7" d="M35.5866 22.4504C36.4758 22.4504 37.1967 21.7295 37.1967 20.8403C37.1967 19.9511 36.4758 19.2302 35.5866 19.2302C34.6974 19.2302 33.9766 19.9511 33.9766 20.8403C33.9766 21.7295 34.6974 22.4504 35.5866 22.4504Z" stroke="#AB6939" stroke-width="1.2" stroke-miterlimit="10" stroke-linecap="round" stroke-linejoin="round"/>
<path opacity="0.7" d="M6.87842 19.1611V14.1245C6.87842 13.6067 7.29814 13.187 7.81592 13.187H18.8783C19.3961 13.187 19.8158 13.6067 19.8158 14.1245V33.8757C19.8158 34.3934 19.3961 34.8132 18.8783 34.8132H7.81592C7.29814 34.8132 6.87842 34.3934 6.87842 33.8757V22.4428" stroke="#AB6939" stroke-width="1.2" stroke-miterlimit="10" stroke-linecap="round" stroke-linejoin="round"/>
<path opacity="0.7" d="M6.87842 17.8383H19.8159V24H6.87842" stroke="#AB6939" stroke-width="1.2" stroke-miterlimit="10" stroke-linecap="round" stroke-linejoin="round"/>
<path opacity="0.7" d="M11.3345 30.1617H6.87842V24H19.8159V30.1617H15.4294" stroke="#AB6939" stroke-width="1.2" stroke-miterlimit="10" stroke-linecap="round" stroke-linejoin="round"/>
<path opacity="0.7" d="M11.4302 27.7893V34.8131H15.2645V27.7893C15.2645 27.4227 14.9673 27.1255 14.6006 27.1255H12.094C11.7274 27.1255 11.4302 27.4228 11.4302 27.7893Z" stroke="#AB6939" stroke-width="1.2" stroke-miterlimit="10" stroke-linecap="round" stroke-linejoin="round"/>
<path opacity="0.7" d="M24 43.5114V4.48853" stroke="#AB6939" stroke-width="1.2" stroke-miterlimit="10" stroke-linecap="round" stroke-linejoin="round"/>
<path opacity="0.7" d="M42.775 37.7928C45.6166 33.9312 47.2967 29.1621 47.2967 24C47.2967 11.1335 36.8663 0.703125 23.9998 0.703125C18.8377 0.703125 14.0686 2.38322 10.207 5.22478" stroke="#AB6939" stroke-width="1.2" stroke-miterlimit="10" stroke-linecap="round" stroke-linejoin="round"/>
<path opacity="0.7" d="M5.22478 10.2073C2.38322 14.0688 0.703125 18.838 0.703125 24.0001C0.703125 36.8666 11.1335 47.2969 24 47.2969C29.1622 47.2969 33.9312 45.6168 37.7928 42.7753" stroke="#AB6939" stroke-width="1.2" stroke-miterlimit="10" stroke-linecap="round" stroke-linejoin="round"/>
</g>
<defs>
<clipPath id="clip0_1754_4008">
<rect width="48" height="48" fill="white"/>
</clipPath>
</defs>
</svg>
