<svg width="48" height="92" viewBox="0 0 48 92" fill="none" xmlns="http://www.w3.org/2000/svg">
<path d="M24.0555 46.3062C27.0588 48.5708 30.0538 50.8353 33.0571 53.0999V59.2768C31.4581 58.0756 29.859 56.866 28.2601 55.6566C28.1304 55.5593 27.9842 55.47 27.7974 55.3401V91.6221H23.6578V46.0303C23.7956 46.1277 23.9338 46.2089 24.0555 46.3062Z" fill="white"/>
<path d="M48 65.0641C47.9838 73.6516 47.9918 82.2392 47.9918 90.8267V91.6465H43.8118V90.9485C43.8118 83.3186 43.8118 75.6888 43.8199 68.051C43.8199 67.572 43.7144 67.3043 43.3816 67.0607C41.815 65.8837 40.2486 64.7069 38.6902 63.5299V57.353C41.6366 59.577 44.583 61.801 47.5374 64.025C47.8863 64.285 48 64.5609 48 65.0641Z" fill="white"/>
<path d="M37.8783 56.7363V62.9132C37.8783 71.4683 37.8783 78.8871 37.8701 82.7181C37.8701 82.8723 37.8619 83.0347 37.8539 83.2619C37.7078 83.1727 37.6022 83.1078 37.4967 83.0347C36.409 82.1987 35.3296 81.3545 34.2257 80.5428C33.9498 80.3318 33.8605 80.0963 33.8605 79.6905C33.8687 76.2895 33.8687 68.6354 33.8687 59.8937V53.7087C33.8687 40.4702 33.8687 26.4688 33.8769 21.5095C33.8769 21.0631 33.7876 20.8033 33.479 20.568C28.609 16.8423 23.7389 13.1005 18.8689 9.36682C18.7553 9.28556 18.6334 9.21264 18.455 9.09089V9.7971C18.455 16.2986 18.4468 22.8002 18.463 29.3017C18.463 29.7318 18.3657 29.9753 18.0734 30.1863C16.9857 30.9899 15.9143 31.834 14.8348 32.6538C14.7375 32.7349 14.6238 32.808 14.4696 32.9135V0C14.6238 0.0973316 14.7537 0.178599 14.8755 0.27593C22.4402 6.07125 29.997 11.8748 37.5619 17.6702C37.7974 17.8488 37.8785 18.0437 37.8785 18.3927C37.8703 24.8536 37.8783 41.5985 37.8783 56.7363Z" fill="white"/>
<path d="M0.00782331 80.64C0.00782331 77.2737 0.00782331 56.9356 0.00782331 53.6673C0.00782331 51.8354 0.0174287 50.0032 0.000104317 48.1716C-0.00367555 47.7789 0.0949129 47.5619 0.353361 47.3641C8.19107 41.3634 16.0247 35.3536 23.8588 29.3448C25.0412 28.438 26.2231 27.5297 27.4519 26.5863C27.4519 33.423 27.4519 40.1951 27.4519 47.0179C27.3413 46.947 27.2315 46.8875 27.1298 46.8099C26.0164 45.9588 24.9086 45.0958 23.7888 44.2592C23.5529 44.083 23.4696 43.8877 23.4713 43.5373C23.4838 41.1846 23.4778 38.8317 23.4778 36.4789C23.4778 36.2656 23.4778 36.0524 23.4778 35.7259C23.3017 35.8347 23.1822 35.8944 23.0735 35.9779C16.8418 40.7569 10.6121 45.5401 4.37625 50.3103C4.11181 50.5127 4.01747 50.733 4.01888 51.1199C4.02944 54.0653 4.0192 74.0808 4.0307 77.0261C4.03227 77.4307 3.9436 77.6665 3.65917 77.8758C2.57135 78.6757 1.50244 79.518 0.425812 80.3431C0.308951 80.4326 0.187839 80.5124 0.00782331 80.64Z" fill="white"/>
<path d="M12.6439 54.0732H9.1579V57.5592H12.6439V54.0732Z" fill="white"/>
<path d="M17.347 54.0732H13.861V57.5592H17.347V54.0732Z" fill="white"/>
<path d="M12.6439 58.9946H9.1579V62.4806H12.6439V58.9946Z" fill="white"/>
<path d="M17.347 58.9946H13.861V62.4806H17.347V58.9946Z" fill="white"/>
</svg>
