<svg width="32" height="33" viewBox="0 0 32 33" fill="none" xmlns="http://www.w3.org/2000/svg">
<mask id="path-1-inside-1_1754_3182" fill="white">
<path d="M20.5733 4.76465H27.0343C27.5677 4.76465 28.0001 5.19703 28.0001 5.73044V15.9679C28.0001 16.5013 27.5677 16.9337 27.0343 16.9337H16.7968C16.2634 16.9337 15.8311 16.5013 15.8311 15.9679V5.73044C15.8311 5.19703 16.2634 4.76465 16.7968 4.76465H18.8975"/>
</mask>
<path d="M20.5733 3.96465C20.1314 3.96465 19.7733 4.32282 19.7733 4.76465C19.7733 5.20648 20.1314 5.56465 20.5733 5.56465V3.96465ZM18.8975 5.56465C19.3393 5.56465 19.6975 5.20648 19.6975 4.76465C19.6975 4.32282 19.3393 3.96465 18.8975 3.96465V5.56465ZM20.5733 4.76465V5.56465H27.0343V4.76465V3.96465H20.5733V4.76465ZM27.0343 4.76465V5.56465C27.1259 5.56465 27.2001 5.63886 27.2001 5.73044H28.0001H28.8001C28.8001 4.75521 28.0095 3.96465 27.0343 3.96465V4.76465ZM28.0001 5.73044H27.2001V15.9679H28.0001H28.8001V5.73044H28.0001ZM28.0001 15.9679H27.2001C27.2001 16.0595 27.1259 16.1337 27.0343 16.1337V16.9337V17.7337C28.0095 17.7337 28.8001 16.9431 28.8001 15.9679H28.0001ZM27.0343 16.9337V16.1337H16.7968V16.9337V17.7337H27.0343V16.9337ZM16.7968 16.9337V16.1337C16.7053 16.1337 16.6311 16.0595 16.6311 15.9679H15.8311H15.0311C15.0311 16.9431 15.8216 17.7337 16.7968 17.7337V16.9337ZM15.8311 15.9679H16.6311V5.73044H15.8311H15.0311V15.9679H15.8311ZM15.8311 5.73044H16.6311C16.6311 5.63886 16.7053 5.56465 16.7968 5.56465V4.76465V3.96465C15.8216 3.96465 15.0311 4.75521 15.0311 5.73044H15.8311ZM16.7968 4.76465V5.56465H18.8975V4.76465V3.96465H16.7968V4.76465Z" fill="#234B34" mask="url(#path-1-inside-1_1754_3182)"/>
<path d="M24.7988 10.8391V14.345C24.7988 14.4736 24.695 14.5783 24.5664 14.5784H19.2646C19.1361 14.5783 19.0322 14.4736 19.0322 14.345V10.8391H24.7988Z" stroke="#234B34" stroke-width="0.8" stroke-miterlimit="10" stroke-linecap="round" stroke-linejoin="round"/>
<path d="M21.5137 7.27112C21.7445 7.07064 22.0866 7.07064 22.3174 7.27112L25.5039 10.0387H18.3271L21.5137 7.27112Z" stroke="#234B34" stroke-width="0.8" stroke-miterlimit="10" stroke-linecap="round" stroke-linejoin="round"/>
<path d="M21.3696 12.361H22.4614C22.579 12.3612 22.6743 12.4562 22.6743 12.5739V14.5778H21.1567V12.5739C21.1567 12.4561 21.2518 12.361 21.3696 12.361Z" stroke="#234B34" stroke-width="0.8" stroke-miterlimit="10" stroke-linecap="round" stroke-linejoin="round"/>
<mask id="path-6-inside-2_1754_3182" fill="white">
<path d="M6.63386 10.6967L5.58177 13.1439C5.50934 13.3123 5.58718 13.5076 5.75566 13.58L6.07679 13.7181C6.22818 13.7832 6.29815 13.9587 6.23306 14.1101L5.677 15.4036C5.62842 15.5166 5.51547 15.5882 5.39252 15.5839L4.90465 15.567C4.68807 15.5595 4.48902 15.6857 4.40345 15.8848L4.04273 16.7239C3.98768 16.852 3.98575 16.9967 4.03737 17.1262L4.40543 18.0494C4.45705 18.1789 4.55803 18.2826 4.68614 18.3377L5.0912 18.5118C5.21931 18.5669 5.36403 18.5688 5.49355 18.5172L6.41607 18.1494C6.54559 18.0978 6.64931 17.9968 6.70436 17.8687L9.30361 11.8227"/>
</mask>
<path d="M7.36882 11.0126C7.54332 10.6067 7.35573 10.1362 6.94983 9.9617C6.54392 9.78719 6.0734 9.97478 5.8989 10.3807L7.36882 11.0126ZM5.58177 13.1439L6.31669 13.4599L6.31673 13.4598L5.58177 13.1439ZM5.75566 13.58L6.07164 12.8451L6.07164 12.8451L5.75566 13.58ZM6.07679 13.7181L6.3928 12.9832L6.39277 12.9831L6.07679 13.7181ZM6.23306 14.1101L6.96802 14.4261L6.96803 14.426L6.23306 14.1101ZM5.677 15.4036L6.41196 15.7195L6.41196 15.7195L5.677 15.4036ZM5.39252 15.5839L5.36483 16.3834L5.36489 16.3834L5.39252 15.5839ZM4.90465 15.567L4.87684 16.3665L4.87695 16.3665L4.90465 15.567ZM4.40345 15.8848L5.13841 16.2008L5.13847 16.2006L4.40345 15.8848ZM4.04273 16.7239L3.30777 16.4079L3.30771 16.4081L4.04273 16.7239ZM4.03737 17.1262L3.29422 17.4224L3.29426 17.4225L4.03737 17.1262ZM4.40543 18.0494L5.14858 17.7532L5.14855 17.7531L4.40543 18.0494ZM4.68614 18.3377L5.0021 17.6027L5.00198 17.6027L4.68614 18.3377ZM5.0912 18.5118L4.77524 19.2468L4.77536 19.2468L5.0912 18.5118ZM5.49355 18.5172L5.78975 19.2603L5.7898 19.2603L5.49355 18.5172ZM6.41607 18.1494L6.11987 17.4063L6.11982 17.4063L6.41607 18.1494ZM6.70436 17.8687L5.9694 17.5527L5.96935 17.5529L6.70436 17.8687ZM10.0386 12.1386C10.2131 11.7327 10.0255 11.2622 9.61957 11.0877C9.21367 10.9132 8.74315 11.1008 8.56865 11.5067L10.0386 12.1386ZM6.63386 10.6967L5.8989 10.3807L4.84681 12.8279L5.58177 13.1439L6.31673 13.4598L7.36882 11.0126L6.63386 10.6967ZM5.58177 13.1439L4.84685 12.8278C4.59982 13.4022 4.86533 14.0681 5.43969 14.315L5.75566 13.58L6.07164 12.8451C6.30903 12.9471 6.41885 13.2224 6.31669 13.4599L5.58177 13.1439ZM5.75566 13.58L5.43969 14.315L5.76081 14.4531L6.07679 13.7181L6.39277 12.9831L6.07164 12.8451L5.75566 13.58ZM6.07679 13.7181L5.76078 14.453C5.50627 14.3436 5.38872 14.0486 5.49808 13.7942L6.23306 14.1101L6.96803 14.426C7.20758 13.8688 6.95009 13.2228 6.3928 12.9832L6.07679 13.7181ZM6.23306 14.1101L5.49809 13.7941L4.94204 15.0876L5.677 15.4036L6.41196 15.7195L6.96802 14.4261L6.23306 14.1101ZM5.677 15.4036L4.94204 15.0876C5.02373 14.8976 5.2136 14.7773 5.42016 14.7844L5.39252 15.5839L5.36489 16.3834C5.81733 16.3991 6.23311 16.1355 6.41196 15.7195L5.677 15.4036ZM5.39252 15.5839L5.42022 14.7844L4.93235 14.7675L4.90465 15.567L4.87695 16.3665L5.36483 16.3834L5.39252 15.5839ZM4.90465 15.567L4.93246 14.7675C4.38625 14.7485 3.88425 15.0667 3.66843 15.569L4.40345 15.8848L5.13847 16.2006C5.09379 16.3046 4.9899 16.3705 4.87684 16.3665L4.90465 15.567ZM4.40345 15.8848L3.66849 15.5688L3.30777 16.4079L4.04273 16.7239L4.77769 17.0399L5.13841 16.2008L4.40345 15.8848ZM4.04273 16.7239L3.30771 16.4081C3.16895 16.731 3.16405 17.0959 3.29422 17.4224L4.03737 17.1262L4.78051 16.83C4.80744 16.8976 4.80641 16.973 4.77774 17.0397L4.04273 16.7239ZM4.03737 17.1262L3.29426 17.4225L3.66232 18.3457L4.40543 18.0494L5.14855 17.7531L4.78048 16.83L4.03737 17.1262ZM4.40543 18.0494L3.66229 18.3456C3.79246 18.6722 4.04711 18.9338 4.3703 19.0727L4.68614 18.3377L5.00198 17.6027C5.06895 17.6315 5.12165 17.6856 5.14858 17.7532L4.40543 18.0494ZM4.68614 18.3377L4.37018 19.0727L4.77524 19.2468L5.0912 18.5118L5.40716 17.7769L5.0021 17.6027L4.68614 18.3377ZM5.0912 18.5118L4.77536 19.2468C5.09829 19.3856 5.46316 19.3905 5.78975 19.2603L5.49355 18.5172L5.19734 17.774C5.2649 17.7471 5.34032 17.7481 5.40703 17.7768L5.0912 18.5118ZM5.49355 18.5172L5.7898 19.2603L6.71233 18.8925L6.41607 18.1494L6.11982 17.4063L5.19729 17.7741L5.49355 18.5172ZM6.41607 18.1494L6.71228 18.8925C7.03887 18.7624 7.3005 18.5077 7.43938 18.1845L6.70436 17.8687L5.96935 17.5529C5.99813 17.4859 6.0523 17.4332 6.11987 17.4063L6.41607 18.1494ZM6.70436 17.8687L7.43932 18.1847L10.0386 12.1386L9.30361 11.8227L8.56865 11.5067L5.9694 17.5527L6.70436 17.8687Z" fill="#234B34" mask="url(#path-6-inside-2_1754_3182)"/>
<path d="M9.25635 5.16589C10.9674 5.16589 12.3548 6.55252 12.355 8.26355C12.355 9.9747 10.9675 11.3622 9.25635 11.3622C7.54532 11.362 6.15869 9.97461 6.15869 8.26355C6.15883 6.55261 7.54541 5.16603 9.25635 5.16589Z" stroke="#234B34" stroke-width="0.8" stroke-miterlimit="10" stroke-linecap="round" stroke-linejoin="round"/>
<path d="M7.74121 7.61267C8.10035 6.77734 9.07288 6.38932 9.9082 6.74841C10.7435 7.10751 11.1315 8.08011 10.7725 8.91541C10.4134 9.75058 9.44071 10.1385 8.60547 9.77966C7.77018 9.42056 7.38229 8.44792 7.74121 7.61267Z" stroke="#234B34" stroke-width="0.8" stroke-miterlimit="10" stroke-linecap="round" stroke-linejoin="round"/>
<mask id="path-10-inside-3_1754_3182" fill="white">
<path d="M10.5293 9.026C10.5293 9.026 13.0305 10.8491 15.8313 10.8491Z"/>
</mask>
<path d="M11.0005 8.37951C10.6435 8.11926 10.143 8.19774 9.8828 8.55478C9.62256 8.91183 9.70103 9.41225 10.0581 9.6725L11.0005 8.37951ZM15.8313 11.6491C16.2731 11.6491 16.6313 11.2909 16.6313 10.8491C16.6313 10.4073 16.2731 10.0491 15.8313 10.0491V11.6491ZM10.5293 9.026C10.0581 9.6725 10.0583 9.67263 10.0584 9.67276C10.0585 9.67282 10.0587 9.67296 10.0589 9.67307C10.0592 9.67329 10.0595 9.67354 10.0599 9.67381C10.0606 9.67436 10.0616 9.67502 10.0626 9.67579C10.0648 9.67733 10.0675 9.67931 10.0709 9.68171C10.0775 9.6865 10.0867 9.69298 10.0981 9.70104C10.1211 9.71716 10.1534 9.7396 10.1947 9.76745C10.2772 9.82312 10.3955 9.90058 10.5452 9.99253C10.844 10.1761 11.2711 10.4192 11.7913 10.6623C12.8213 11.1436 14.268 11.6491 15.8313 11.6491V10.8491V10.0491C14.5939 10.0491 13.3895 9.64303 12.4687 9.21276C12.0135 9.00008 11.6402 8.78744 11.3826 8.62918C11.254 8.55022 11.155 8.48526 11.0898 8.44123C11.0572 8.41923 11.0331 8.40249 11.018 8.39191C11.0105 8.38661 11.0052 8.38286 11.0023 8.38076C11.0008 8.3797 10.9999 8.37906 10.9996 8.37885C10.9995 8.37875 10.9995 8.37875 10.9996 8.37885C10.9997 8.37891 10.9998 8.37899 11 8.3791C11 8.37915 11.0002 8.37925 11.0002 8.37928C11.0004 8.37939 11.0005 8.37951 10.5293 9.026Z" fill="#234B34" mask="url(#path-10-inside-3_1754_3182)"/>
<mask id="path-12-inside-4_1754_3182" fill="white">
<path d="M6.99405 20.3885L6.11653 19.9322C5.40889 19.5642 4.53519 19.8379 4.165 20.5434C3.79486 21.2489 4.06842 22.1192 4.77601 22.4872L9.80712 25.1036"/>
</mask>
<path d="M6.62495 21.0983C7.01695 21.3021 7.49997 21.1496 7.70382 20.7576C7.90767 20.3656 7.75514 19.8826 7.36315 19.6787L6.62495 21.0983ZM6.11653 19.9322L5.74742 20.6419L5.74743 20.6419L6.11653 19.9322ZM4.165 20.5434L3.45661 20.1716L3.45656 20.1717L4.165 20.5434ZM4.77601 22.4872L4.40687 23.197L4.4069 23.197L4.77601 22.4872ZM9.43802 25.8134C9.83001 26.0172 10.313 25.8647 10.5169 25.4727C10.7207 25.0807 10.5682 24.5977 10.1762 24.3939L9.43802 25.8134ZM6.99405 20.3885L7.36315 19.6787L6.48563 19.2224L6.11653 19.9322L5.74743 20.6419L6.62495 21.0983L6.99405 20.3885ZM6.11653 19.9322L6.48565 19.2224C5.38763 18.6514 4.03187 19.0754 3.45661 20.1716L4.165 20.5434L4.87339 20.9151C5.03851 20.6004 5.43016 20.4769 5.74742 20.6419L6.11653 19.9322ZM4.165 20.5434L3.45656 20.1717C2.88029 21.2702 3.30702 22.6249 4.40687 23.197L4.77601 22.4872L5.14515 21.7775C4.82982 21.6135 4.70943 21.2276 4.87343 20.915L4.165 20.5434ZM4.77601 22.4872L4.4069 23.197L9.43802 25.8134L9.80712 25.1036L10.1762 24.3939L5.14511 21.7775L4.77601 22.4872Z" fill="#234B34" mask="url(#path-12-inside-4_1754_3182)"/>
<path d="M26.4683 27.3766V22.0281" stroke="#234B34" stroke-width="0.8" stroke-miterlimit="10" stroke-linecap="round" stroke-linejoin="round"/>
<mask id="path-15-inside-5_1754_3182" fill="white">
<path d="M21.7503 27.791L15.2272 28.7493C15.1568 28.7596 15.0862 28.7647 15.0159 28.7647C14.6938 28.7647 14.3787 28.6576 14.1223 28.457L6.88356 22.7955C6.25531 22.3042 6.14612 21.3988 6.63969 20.7733C7.13331 20.1479 8.04266 20.0392 8.67095 20.5305L14.3535 24.9749C14.3535 24.9749 17.9201 22.5592 20.3816 22.3696C22.6092 22.1981 24.3017 23.3247 24.603 25.2702"/>
</mask>
<path d="M21.8666 28.5825C22.3037 28.5183 22.606 28.1119 22.5418 27.6747C22.4776 27.2376 22.0712 26.9353 21.6341 26.9995L21.8666 28.5825ZM15.2272 28.7493L15.3434 29.5408L15.3434 29.5408L15.2272 28.7493ZM14.1223 28.457L14.6152 27.8269L14.6151 27.8268L14.1223 28.457ZM6.88356 22.7955L7.37641 22.1654L7.3764 22.1654L6.88356 22.7955ZM6.63969 20.7733L6.01171 20.2777L6.01169 20.2777L6.63969 20.7733ZM8.67095 20.5305L9.1638 19.9004L9.16377 19.9003L8.67095 20.5305ZM14.3535 24.9749L13.8607 25.6051C14.1343 25.819 14.5146 25.832 14.8022 25.6373L14.3535 24.9749ZM20.3816 22.3696L20.3201 21.572L20.3201 21.572L20.3816 22.3696ZM23.8125 25.3927C23.8801 25.8293 24.2889 26.1284 24.7255 26.0608C25.1621 25.9931 25.4613 25.5843 25.3936 25.1477L23.8125 25.3927ZM21.7503 27.791L21.6341 26.9995L15.1109 27.9578L15.2272 28.7493L15.3434 29.5408L21.8666 28.5825L21.7503 27.791ZM15.2272 28.7493L15.1109 27.9578C15.0795 27.9624 15.0477 27.9647 15.0159 27.9647V28.7647V29.5647C15.1247 29.5647 15.2341 29.5568 15.3434 29.5408L15.2272 28.7493ZM15.0159 28.7647V27.9647C14.871 27.9647 14.7297 27.9164 14.6152 27.8269L14.1223 28.457L13.6294 29.0871C14.0277 29.3987 14.5167 29.5647 15.0159 29.5647V28.7647ZM14.1223 28.457L14.6151 27.8268L7.37641 22.1654L6.88356 22.7955L6.39071 23.4257L13.6294 29.0871L14.1223 28.457ZM6.88356 22.7955L7.3764 22.1654C7.09664 21.9466 7.04917 21.5458 7.2677 21.2689L6.63969 20.7733L6.01169 20.2777C5.24308 21.2517 5.41398 22.6618 6.39071 23.4257L6.88356 22.7955ZM6.63969 20.7733L7.26768 21.2689C7.48795 20.9898 7.89616 20.9402 8.17813 21.1607L8.67095 20.5305L9.16377 19.9003C8.18915 19.1381 6.77867 19.3059 6.01171 20.2777L6.63969 20.7733ZM8.67095 20.5305L8.1781 21.1607L13.8607 25.6051L14.3535 24.9749L14.8464 24.3447L9.1638 19.9004L8.67095 20.5305ZM14.3535 24.9749C14.8022 25.6373 14.8021 25.6373 14.802 25.6374C14.802 25.6374 14.802 25.6374 14.802 25.6374C14.802 25.6374 14.802 25.6374 14.8021 25.6373C14.8023 25.6372 14.8027 25.6369 14.8033 25.6365C14.8045 25.6357 14.8066 25.6343 14.8095 25.6324C14.8153 25.6285 14.8244 25.6224 14.8367 25.6142C14.8612 25.5979 14.8984 25.5734 14.9472 25.5418C15.0447 25.4784 15.1882 25.3868 15.3686 25.2758C15.7299 25.0534 16.2362 24.7553 16.8154 24.4521C18.0063 23.8289 19.388 23.2485 20.443 23.1673L20.3816 22.3696L20.3201 21.572C18.9137 21.6803 17.2814 22.4025 16.0736 23.0345C15.4535 23.359 14.9143 23.6767 14.53 23.9132C14.3375 24.0316 14.1831 24.1302 14.076 24.1997C14.0224 24.2345 13.9806 24.262 13.9518 24.2812C13.9373 24.2908 13.9261 24.2983 13.9182 24.3036C13.9143 24.3062 13.9112 24.3083 13.909 24.3098C13.9079 24.3105 13.907 24.3111 13.9063 24.3116C13.906 24.3118 13.9057 24.312 13.9054 24.3122C13.9053 24.3123 13.9052 24.3124 13.9051 24.3124C13.905 24.3125 13.9049 24.3125 14.3535 24.9749ZM20.3816 22.3696L20.443 23.1673C21.4108 23.0927 22.202 23.3043 22.7644 23.6873C23.3169 24.0636 23.695 24.6346 23.8125 25.3927L24.603 25.2702L25.3936 25.1477C25.2097 23.9603 24.5909 22.9953 23.6649 22.3648C22.7488 21.7409 21.5799 21.475 20.3201 21.572L20.3816 22.3696Z" fill="#234B34" mask="url(#path-15-inside-5_1754_3182)"/>
<mask id="path-17-inside-6_1754_3182" fill="white">
<path d="M16.6576 23.5554L13.4734 22.1312C12.8133 21.8359 12.5189 21.0642 12.8159 20.4075C13.1134 19.7498 13.8908 19.457 14.5512 19.754L17.3637 21.0186C17.6704 21.1565 18.0239 21.1324 18.3136 20.9616C19.1441 20.4722 22.0241 19.2076 23.5426 21.8606L27.9997 21.8607V27.5442H23.4305"/>
</mask>
<path d="M16.331 24.2857C16.7343 24.4661 17.2075 24.2853 17.3879 23.882C17.5683 23.4787 17.3875 23.0055 16.9842 22.8251L16.331 24.2857ZM13.4734 22.1312L13.1467 22.8615L13.1467 22.8615L13.4734 22.1312ZM12.8159 20.4075L13.5449 20.7371L13.5449 20.7371L12.8159 20.4075ZM14.5512 19.754L14.2231 20.4836L14.2231 20.4836L14.5512 19.754ZM17.3637 21.0186L17.6918 20.289L17.6918 20.289L17.3637 21.0186ZM18.3136 20.9616L17.9074 20.2724L17.9074 20.2724L18.3136 20.9616ZM23.5426 21.8606L22.8483 22.258C22.9908 22.507 23.2558 22.6606 23.5426 22.6606L23.5426 21.8606ZM27.9997 21.8607H28.7997C28.7997 21.4188 28.4416 21.0607 27.9997 21.0607L27.9997 21.8607ZM27.9997 27.5442V28.3442C28.4416 28.3442 28.7997 27.986 28.7997 27.5442H27.9997ZM23.4305 26.7442C22.9887 26.7442 22.6305 27.1023 22.6305 27.5442C22.6305 27.986 22.9887 28.3442 23.4305 28.3442V26.7442ZM16.6576 23.5554L16.9842 22.8251L13.8 21.4009L13.4734 22.1312L13.1467 22.8615L16.331 24.2857L16.6576 23.5554ZM13.4734 22.1312L13.8 21.4009C13.5421 21.2856 13.4315 20.9879 13.5449 20.7371L12.8159 20.4075L12.087 20.0778C11.6064 21.1406 12.0844 22.3863 13.1467 22.8615L13.4734 22.1312ZM12.8159 20.4075L13.5449 20.7371C13.6595 20.4836 13.9629 20.3666 14.2231 20.4836L14.5512 19.754L14.8793 19.0243C13.8187 18.5474 12.5672 19.0161 12.087 20.0778L12.8159 20.4075ZM14.5512 19.754L14.2231 20.4836L17.0356 21.7483L17.3637 21.0186L17.6918 20.289L14.8793 19.0243L14.5512 19.754ZM17.3637 21.0186L17.0356 21.7482C17.587 21.9962 18.214 21.949 18.7198 21.6509L18.3136 20.9616L17.9074 20.2724C17.8339 20.3157 17.7538 20.3169 17.6918 20.289L17.3637 21.0186ZM18.3136 20.9616L18.7197 21.6509C19.0777 21.4399 19.8748 21.0694 20.7062 21.0319C21.1101 21.0137 21.497 21.0751 21.8456 21.2484C22.1879 21.4186 22.5402 21.7196 22.8483 22.258L23.5426 21.8606L24.237 21.4632C23.7858 20.6751 23.2087 20.1393 22.5579 19.8157C21.9135 19.4953 21.2438 19.406 20.6341 19.4335C19.4382 19.4875 18.38 19.9939 17.9074 20.2724L18.3136 20.9616ZM23.5426 21.8606L23.5426 22.6606L27.9997 22.6607L27.9997 21.8607L27.9997 21.0607L23.5426 21.0606L23.5426 21.8606ZM27.9997 21.8607H27.1997V27.5442H27.9997H28.7997V21.8607H27.9997ZM27.9997 27.5442V26.7442H23.4305V27.5442V28.3442H27.9997V27.5442Z" fill="#234B34" mask="url(#path-17-inside-6_1754_3182)"/>
</svg>
