<svg width="28" height="25" viewBox="0 0 28 25" fill="none" xmlns="http://www.w3.org/2000/svg">
<path d="M0.864596 24.3675C0.46206 24.3675 0.160156 24.0656 0.160156 23.7637V23.6631V10.9832C0.160156 10.7819 0.260791 10.5806 0.361425 10.3793L0.462058 10.2787L3.17919 8.46733V3.83813C3.17919 3.43559 3.48109 3.13367 3.78299 3.13367H3.88362H5.19187V0.819099C5.19187 0.416563 5.49377 0.0140381 5.99694 0.0140381H22.0984C22.5009 0.0140381 22.9035 0.315928 22.9035 0.819099V3.13367H24.0105C24.413 3.13367 24.7149 3.43561 24.7149 3.73752V3.83813V8.46733L27.432 10.2787C27.6333 10.3794 27.7339 10.5806 27.7339 10.7819V10.8825V23.5625C27.7339 23.965 27.432 24.2669 27.1301 24.2669H27.0295H0.864596V24.3675ZM3.17919 10.2787L1.66967 11.2851V22.7573H3.17919V10.2787ZM24.8155 10.2787V22.7573H26.3251V11.2851L24.8155 10.2787ZM23.306 4.64319H4.6887V22.858H6.19821V14.606C6.19821 14.2035 6.50011 13.9015 6.80202 13.9015H6.90265H11.9344C12.3369 13.9015 12.6388 14.2035 12.6388 14.5054V14.606V22.858H15.1546V14.606C15.1546 14.2035 15.4566 13.9015 15.7585 13.9015H15.8591H20.8908C21.2933 13.9015 21.5952 14.2035 21.5952 14.5054V14.606V22.858H23.1048V4.64319H23.306ZM11.2299 15.3104H7.70772V22.858H11.2299V15.3104ZM20.287 15.3104H16.7648V22.858H20.287V15.3104ZM21.2933 1.62416H6.70138V3.13367H21.2933V1.62416Z" fill="#234B34"/>
<path d="M10.9285 6.15283C11.3311 6.15283 11.633 6.45477 11.633 6.75667V6.85728V9.87631C11.633 10.2788 11.3311 10.5808 11.0292 10.5808H10.9285H6.90317C6.50063 10.5808 6.19873 10.2789 6.19873 9.97698V9.87631V6.85728C6.19873 6.45475 6.50063 6.15283 6.80253 6.15283H6.90317H10.9285ZM20.992 6.15283C21.3945 6.15283 21.6964 6.45477 21.6964 6.75667V6.85728V9.87631C21.6964 10.2788 21.3945 10.5808 21.0926 10.5808H20.992H16.9666C16.564 10.5808 16.2621 10.2789 16.2621 9.97698V9.87631V6.85728C16.2621 6.45475 16.5641 6.15283 16.866 6.15283H16.9666H20.992ZM10.2241 7.66234H7.70824V9.17186H10.2241V7.66234ZM20.2875 7.66234H17.7717V9.17186H20.2875V7.66234Z" fill="#AB6939"/>
</svg>
