<svg width="23" height="25" viewBox="0 0 23 25" fill="none" xmlns="http://www.w3.org/2000/svg">
<path d="M8.26443 5.50767C8.99339 4.85971 9.96532 4.61672 10.9373 4.61672H11.1803L12.9621 4.8597C14.1771 5.0217 14.987 6.07463 14.906 7.20856V7.37056L15.878 9.07145C15.878 9.07145 15.878 9.15245 15.959 9.15245L19.4417 10.7723C20.1707 11.0963 20.5757 11.9873 20.2517 12.7972C19.9277 13.5262 19.1178 13.9311 18.3888 13.6882L18.3078 13.6072L14.3391 12.0683C14.1771 11.9873 14.0961 11.9063 13.9341 11.8253L13.5291 13.6072L18.6318 21.7877C19.0368 22.4356 18.8748 23.3266 18.3078 23.8935L18.2268 23.9745L18.1458 24.0555L17.9838 24.1365C17.2549 24.4605 16.4449 24.2985 15.878 23.7316L15.797 23.6506L11.8282 18.6289L11.7472 18.7909C11.6662 19.0338 11.5042 19.2768 11.3422 19.4388L11.1803 19.6008L7.45448 23.6506C6.80652 24.3795 5.75358 24.5415 4.86263 24.1365C4.78164 24.1365 4.70065 24.0555 4.61965 23.9745C3.8907 23.4886 3.7287 22.5166 4.13368 21.8687L4.21468 21.7877L7.29249 17.4949C7.37348 17.333 7.53547 17.171 7.53547 16.928V16.766L8.26443 13.1212C8.26443 12.9592 8.26443 12.8782 8.34543 12.7162L8.42642 12.4732L9.23637 9.31443L8.58841 9.71941C8.58841 9.71941 8.58841 9.71941 8.50741 9.80041V9.8814L7.53547 13.8502C7.29249 14.6601 6.48254 15.2271 5.67259 15.0651C4.86263 14.9031 4.29567 14.2551 4.37667 13.4452V13.2832L5.4296 8.58548C5.5106 8.18051 5.75358 7.77553 6.07756 7.45155L6.23955 7.37056L8.26443 5.50767ZM2.67577 22.6786C2.99975 22.6786 3.32373 22.9216 3.32373 23.3266C3.32373 23.6506 3.08074 23.8935 2.83776 23.8935H2.75676H0.650893C0.326912 23.8935 0.00292969 23.6506 0.00292969 23.2456C0.00292969 22.9216 0.245917 22.6786 0.488902 22.6786H0.569896H2.67577ZM13.6101 22.6786C13.9341 22.6786 14.2581 22.9216 14.2581 23.3266C14.2581 23.6506 14.0151 23.8935 13.7721 23.8935H13.6911H9.88433C9.56035 23.8935 9.23637 23.6506 9.23637 23.2456C9.23637 22.9216 9.47935 22.6786 9.72234 22.6786H9.80333H13.6101ZM22.3576 22.6786C22.6816 22.6786 23.0055 22.9216 23.0055 23.3266C23.0055 23.6506 22.7626 23.8935 22.5196 23.8935H22.4386H20.0897C19.7657 23.8935 19.4417 23.6506 19.4417 23.2456C19.4417 22.9216 19.6847 22.6786 19.9277 22.6786H20.0087H22.3576ZM9.15538 15.2271L8.83139 16.928C8.7504 17.2519 8.6694 17.5759 8.42642 17.8999L8.34543 18.0619L5.26761 22.3546C5.10562 22.5166 5.18661 22.7596 5.3486 22.9216C5.3486 22.9216 5.34861 22.9216 5.4296 22.9216C5.75358 23.0836 6.23955 23.0026 6.48254 22.7596L6.56353 22.6786L10.2893 18.6289C10.4513 18.4669 10.5323 18.3049 10.6133 18.1429L10.6943 17.9809L10.9373 17.3329L9.15538 15.2271ZM11.0183 5.83164C10.3703 5.75065 9.72234 5.91264 9.15538 6.31762L8.99338 6.39861L6.80652 8.18051C6.64453 8.2615 6.56353 8.42349 6.48254 8.66647V8.74747L5.4296 13.4452C5.4296 13.6072 5.5106 13.7692 5.67259 13.7692C5.91557 13.7692 6.07756 13.6882 6.15855 13.5262V13.4452L7.1305 9.47642C7.21149 9.15244 7.37348 8.90946 7.61647 8.66647L7.69746 8.58548L9.64135 7.37056C10.0463 7.12757 10.6133 7.45155 10.5323 7.93752V8.01851L9.39836 12.5542L9.31736 13.0402C9.31736 13.3642 9.39836 13.7692 9.64135 14.0122L9.72234 14.1741L16.4449 22.7596C16.6069 22.9216 16.8499 23.0026 17.0929 22.9216H17.1739L17.2549 22.8406C17.4169 22.7596 17.4169 22.5166 17.3359 22.4356V22.3546L12.1522 13.9312C12.0712 13.8502 12.0712 13.6882 12.0712 13.5262V13.4452L13.6101 7.20856V7.12757C13.6911 6.6416 13.3671 6.15562 12.8002 5.99363H12.7192L11.0183 5.83164ZM14.582 9.07145L14.3391 10.1244L14.663 10.6913C14.663 10.6913 14.663 10.7723 14.744 10.7723L18.7128 12.3113C18.8748 12.3922 19.1178 12.3113 19.1178 12.1493C19.1988 11.9873 19.1178 11.8253 19.0368 11.7443H18.9558L15.473 10.1244C15.23 10.0434 15.068 9.8814 14.906 9.63841L14.825 9.55742L14.582 9.07145ZM13.2861 0C14.663 0 15.716 1.05294 15.716 2.42985C15.716 3.80677 14.663 4.8597 13.2861 4.8597C11.9092 4.8597 10.8563 3.80677 10.8563 2.42985C10.8563 1.05294 11.9092 0 13.2861 0ZM13.2861 1.21493C12.6382 1.21493 12.0712 1.78189 12.0712 2.42985C12.0712 3.07781 12.6382 3.64478 13.2861 3.64478C13.9341 3.64478 14.5011 3.07781 14.5011 2.42985C14.5011 1.78189 13.9341 1.21493 13.2861 1.21493Z" fill="#234B34"/>
<path d="M6.40165 5.10266C6.56364 5.34565 6.56364 5.66963 6.40165 5.91261L6.32066 5.9936L5.10573 7.04654C4.86275 7.28953 4.61976 7.61351 4.53876 7.93749V8.09948L4.05279 10.5293C3.9718 10.8533 3.64781 11.0963 3.32383 11.0153C2.99985 10.9343 2.83787 10.6913 2.83787 10.3673V10.2863L3.32383 7.85649C3.40483 7.20853 3.72881 6.72256 4.21479 6.23659L4.37677 6.0746L5.5917 5.02166C5.83468 4.85967 6.23966 4.85968 6.40165 5.10266ZM4.21479 4.29271C4.45777 4.5357 4.45777 4.85968 4.21479 5.10266L4.13379 5.18365L3.32383 5.9936C3.16184 6.15559 2.99985 6.39858 2.91886 6.64157L2.83787 6.80355L2.43289 8.18048C2.35189 8.50446 2.02792 8.66645 1.70394 8.58546C1.37996 8.50446 1.21797 8.18048 1.29896 7.93749V7.85649L1.70394 6.47958C1.86593 6.0746 2.10891 5.66963 2.3519 5.34565L2.51388 5.18365L3.32383 4.3737C3.64781 4.04972 3.9718 4.04973 4.21479 4.29271Z" fill="#AB6939"/>
</svg>
