<svg width="24" height="24" viewBox="0 0 24 24" fill="none" xmlns="http://www.w3.org/2000/svg">
<path d="M21.9998 12.698C21.9978 14.168 21.9868 15.416 21.9038 16.441C21.8068 17.631 21.6078 18.625 21.1638 19.45C20.9698 19.8116 20.7238 20.1428 20.4338 20.433C19.6008 21.266 18.5408 21.643 17.1968 21.823C15.8838 22 14.1998 22 12.0528 22H11.9468C9.79876 22 8.11676 22 6.80276 21.823C5.45976 21.643 4.39876 21.266 3.56676 20.433C2.82876 19.695 2.44676 18.777 2.24476 17.638C2.04476 16.518 2.00876 15.126 2.00176 13.397C1.99976 12.957 1.9991 12.4914 1.99976 12V11.946C1.99976 9.79802 1.99976 8.11602 2.17676 6.80202C2.35676 5.45902 2.73376 4.39802 3.56676 3.56602C4.39976 2.73402 5.45976 2.35602 6.80276 2.17602C7.97076 2.01902 9.47276 2.00102 11.3018 1.99902C11.4869 1.99902 11.6644 2.07256 11.7953 2.20346C11.9262 2.33436 11.9998 2.5119 11.9998 2.69702C11.9998 2.88214 11.9262 3.05968 11.7953 3.19058C11.6644 3.32148 11.4869 3.39502 11.3018 3.39502C9.44676 3.39702 8.06776 3.41302 6.98876 3.55802C5.79976 3.71802 5.08276 4.02202 4.55276 4.55202C4.02276 5.08202 3.71976 5.80002 3.55976 6.99002C3.39676 8.20002 3.39476 9.78802 3.39476 12V12.784L4.32676 11.97C4.73529 11.6126 5.26438 11.4238 5.80691 11.4418C6.34943 11.4598 6.86484 11.6833 7.24876 12.067L11.2388 16.057C11.5483 16.3668 11.9573 16.5574 12.3935 16.5952C12.8298 16.6331 13.2655 16.5158 13.6238 16.264L13.9018 16.069C14.4185 15.7058 15.0433 15.5287 15.6738 15.5666C16.3043 15.6046 16.9033 15.8554 17.3728 16.278L20.0058 18.648C20.2708 18.091 20.4288 17.36 20.5128 16.328C20.5918 15.356 20.6028 14.176 20.6038 12.698C20.6038 12.5129 20.6773 12.3354 20.8082 12.2045C20.9391 12.0736 21.1166 12 21.3018 12C21.4869 12 21.6644 12.0736 21.7953 12.2045C21.9262 12.3354 21.9998 12.5129 21.9998 12.698Z" fill="#234B34"/>
<path fill-rule="evenodd" clip-rule="evenodd" d="M17.5 11C15.379 11 14.318 11 13.659 10.341C13 9.682 13 8.621 13 6.5C13 4.379 13 3.318 13.659 2.659C14.318 2 15.379 2 17.5 2C19.621 2 20.682 2 21.341 2.659C22 3.318 22 4.379 22 6.5C22 8.621 22 9.682 21.341 10.341C20.682 11 19.621 11 17.5 11ZM18.25 4.5C18.25 4.30109 18.171 4.11032 18.0303 3.96967C17.8897 3.82902 17.6989 3.75 17.5 3.75C17.3011 3.75 17.1103 3.82902 16.9697 3.96967C16.829 4.11032 16.75 4.30109 16.75 4.5V5.75H15.5C15.3011 5.75 15.1103 5.82902 14.9697 5.96967C14.829 6.11032 14.75 6.30109 14.75 6.5C14.75 6.69891 14.829 6.88968 14.9697 7.03033C15.1103 7.17098 15.3011 7.25 15.5 7.25H16.75V8.5C16.75 8.69891 16.829 8.88968 16.9697 9.03033C17.1103 9.17098 17.3011 9.25 17.5 9.25C17.6989 9.25 17.8897 9.17098 18.0303 9.03033C18.171 8.88968 18.25 8.69891 18.25 8.5V7.25H19.5C19.6989 7.25 19.8897 7.17098 20.0303 7.03033C20.171 6.88968 20.25 6.69891 20.25 6.5C20.25 6.30109 20.171 6.11032 20.0303 5.96967C19.8897 5.82902 19.6989 5.75 19.5 5.75H18.25V4.5Z" fill="#234B34"/>
</svg>
