<svg width="18" height="25" viewBox="0 0 18 25" fill="none" xmlns="http://www.w3.org/2000/svg">
<path d="M10.7046 21.8072C11.0348 21.8072 11.2825 22.0548 11.2825 22.3025V22.385V23.2105C11.2825 23.9535 10.7046 24.6139 9.96161 24.6139H9.87906H8.22797C7.48499 24.6139 6.82455 24.0361 6.82455 23.2931V23.2105V22.385C6.82455 22.0548 7.07222 21.8072 7.31988 21.8072H7.40243H10.7046ZM10.1267 23.0455H8.06287V23.2931C8.06287 23.3756 8.14542 23.4582 8.14542 23.4582H8.22797H8.31053H9.96161C10.0442 23.4582 10.1267 23.3756 10.1267 23.2931V23.2105V23.0455ZM11.5301 19.7433C11.8604 19.7433 12.1906 19.9909 12.1906 20.4037C12.1906 20.7339 11.9429 20.9816 11.6952 20.9816H11.6127H6.65944C6.32923 20.9816 5.99901 20.7339 5.99901 20.3211C5.99901 19.9909 6.24667 19.7433 6.49434 19.7433H6.57689H11.5301ZM9.05351 0.343072C12.6859 0.343072 15.9055 2.81964 16.8136 6.36947C17.7217 9.83674 16.3183 13.4691 13.2638 15.3679H13.1812V17.019C13.1812 17.9271 12.5208 18.7526 11.6127 18.8351H11.4476H11.2825H6.57689C5.58624 18.8351 4.76069 18.0922 4.67814 17.1015V16.9364V15.2854H4.59559C1.70619 13.4692 0.302767 10.0844 0.9632 6.78224L1.04576 6.53464L1.12831 6.28693C2.03641 2.81966 5.09091 0.425545 8.64074 0.260437L9.05351 0.343072ZM9.05351 1.49875H8.80585C5.8339 1.5813 3.19217 3.64522 2.44918 6.61717C1.70619 9.50657 2.86195 12.6436 5.42113 14.2121L5.58624 14.2946L6.08156 14.5424V16.9364C6.08156 17.2667 6.32923 17.5143 6.65944 17.5968H6.74199H11.4476C11.7778 17.5968 12.0255 17.3492 12.108 17.019V16.9364V14.5424L12.6033 14.2946C15.2451 12.7261 16.5659 9.58914 15.7404 6.53464C14.9974 3.64524 12.3557 1.58132 9.38373 1.41622L9.05351 1.49875Z" fill="#234B34"/>
<path d="M8.55803 8.26801L9.96145 3.31476L5.25586 9.34115H9.96145L8.55803 14.2944L13.2636 8.26801H8.55803Z" fill="#AB6939"/>
</svg>
