<svg width="30" height="25" viewBox="0 0 30 25" fill="none" xmlns="http://www.w3.org/2000/svg">
<path d="M18.9966 0L29.693 24.3535H0.755371L11.4518 0H18.9966ZM18.0416 1.43256H12.4068L2.95196 22.9209H27.4965L18.0416 1.43256ZM3.907 3.82015C5.43506 3.82015 6.58111 6.58981 6.58111 8.88191C6.58111 10.5055 5.81707 11.6515 4.48002 11.8425V13.7526H3.04747V11.747C1.90142 11.4605 1.13739 10.41 1.13739 8.78643C1.23289 6.68534 2.37894 3.82015 3.907 3.82015ZM3.907 5.25271C3.71599 5.25271 3.52498 5.53929 3.33398 5.92131L3.23847 6.01679L3.14297 6.30335C2.85646 7.06738 2.56995 8.02237 2.56995 8.88191C2.56995 9.55043 2.76095 10.028 3.04747 10.3145V8.88191H4.48002V10.4099C4.86204 10.2189 5.14855 9.74144 5.14855 8.88191C5.14855 8.11788 4.95754 7.25832 4.67103 6.58979L4.57553 6.30335L4.48002 6.01679C4.28901 5.63478 4.09801 5.25271 3.907 5.25271ZM25.8729 0C27.401 0 28.547 2.76966 28.547 5.06175C28.547 6.68532 27.783 7.83134 26.4459 8.02235V9.93243H25.0134V7.92687C23.8673 7.64036 23.1033 6.58984 23.1033 4.96627C23.1988 2.86519 24.3448 0 25.8729 0ZM25.8729 1.43256C25.6819 1.43256 25.4909 1.71914 25.2999 2.10116L25.2044 2.19664L25.1089 2.48319C24.8224 3.24722 24.5358 4.20222 24.5358 5.06175C24.5358 5.73028 24.7268 6.2078 25.0134 6.49431V5.06175H26.4459V6.58979C26.8279 6.39878 27.1144 5.92129 27.1144 5.06175C27.1144 4.29772 26.9234 3.43816 26.6369 2.76964L26.5414 2.48319L26.4459 2.19664C26.2549 1.81462 26.0639 1.43256 25.8729 1.43256Z" fill="#234B34"/>
<path d="M16.0366 17.4773V20.5334H14.604V17.4773H16.0366ZM16.0366 12.7021V15.7582H14.604V12.7021H16.0366ZM16.0366 7.92693V10.983H14.604V7.92693H16.0366ZM16.0366 3.15173V6.20781H14.604V3.15173H16.0366Z" fill="#AB6939"/>
</svg>
