<svg width="48" height="48" viewBox="0 0 48 48" fill="none" xmlns="http://www.w3.org/2000/svg">
<g clip-path="url(#clip0_1754_4021)">
<path opacity="0.7" d="M12.0106 11.2972V8.09518C12.0106 7.4919 11.5216 7.00281 10.9183 7.00281H7.41962C6.81634 7.00281 6.32715 7.4919 6.32715 8.09518V9.14443" stroke="#AB6939" stroke-width="1.2" stroke-miterlimit="10" stroke-linecap="round" stroke-linejoin="round"/>
<path opacity="0.7" d="M6.32764 11.8632V14.3626" stroke="#AB6939" stroke-width="1.2" stroke-miterlimit="10" stroke-linecap="round" stroke-linejoin="round"/>
<path opacity="0.7" d="M37.811 26.8976V26.3637C37.811 25.9714 37.6063 25.6076 37.2709 25.404L31.3432 21.8057C31.0926 21.6537 30.7925 21.6056 30.507 21.6718L25.04 22.9401C24.3363 23.1034 23.6638 22.569 23.6638 21.8466V18.3416C23.6638 17.7866 23.2582 17.3149 22.7095 17.2317L20.4468 16.8886C19.6497 16.7678 19.2361 15.8712 19.6615 15.1863L21.2274 12.6657C21.4755 12.2664 21.4485 11.7548 21.1597 11.3838L19.0247 8.64079C18.6864 8.20617 18.0829 8.0812 17.5998 8.34557L3.60588 16.0063C3.14379 16.2592 2.85645 16.7441 2.85645 17.2709V41.102" stroke="#AB6939" stroke-width="1.2" stroke-miterlimit="10" stroke-linecap="round" stroke-linejoin="round"/>
<path opacity="0.7" d="M2.85693 43.8207V47.2969H37.8114V43.37" stroke="#AB6939" stroke-width="1.2" stroke-miterlimit="10" stroke-linecap="round" stroke-linejoin="round"/>
<path opacity="0.7" d="M24.9953 47.2969H15.6724V34.9979C15.6724 34.5343 16.0482 34.1584 16.5118 34.1584H24.1559C24.6195 34.1584 24.9953 34.5343 24.9953 34.9979V47.2969Z" stroke="#AB6939" stroke-width="1.2" stroke-miterlimit="10" stroke-linecap="round" stroke-linejoin="round"/>
<path opacity="0.7" d="M14.1808 29.7615H8.91702C8.40871 29.7615 7.99658 29.3495 7.99658 28.8411V22.136C7.99658 21.6277 8.40861 21.2156 8.91702 21.2156H14.1808C14.6891 21.2156 15.1012 21.6276 15.1012 22.136V28.8411C15.1011 29.3495 14.6891 29.7615 14.1808 29.7615Z" stroke="#AB6939" stroke-width="1.2" stroke-miterlimit="10" stroke-linecap="round" stroke-linejoin="round"/>
<path opacity="0.7" d="M35.6777 4.33044V24.4368" stroke="#AB6939" stroke-width="1.2" stroke-miterlimit="10" stroke-linecap="round" stroke-linejoin="round"/>
<path opacity="0.7" d="M31.3447 0.703125V21.5797" stroke="#AB6939" stroke-width="1.2" stroke-miterlimit="10" stroke-linecap="round" stroke-linejoin="round"/>
<path opacity="0.7" d="M27.2061 0.703125V22.284" stroke="#AB6939" stroke-width="1.2" stroke-miterlimit="10" stroke-linecap="round" stroke-linejoin="round"/>
<path opacity="0.7" d="M23.1499 0.703125V17.3557" stroke="#AB6939" stroke-width="1.2" stroke-miterlimit="10" stroke-linecap="round" stroke-linejoin="round"/>
<path opacity="0.7" d="M19.4512 0.703125V9.07819" stroke="#AB6939" stroke-width="1.2" stroke-miterlimit="10" stroke-linecap="round" stroke-linejoin="round"/>
<path opacity="0.7" d="M18.0605 2.47266H33.4066" stroke="#AB6939" stroke-width="1.2" stroke-miterlimit="10" stroke-linecap="round" stroke-linejoin="round"/>
<path opacity="0.7" d="M18.0605 5.84143H37.0674" stroke="#AB6939" stroke-width="1.2" stroke-miterlimit="10" stroke-linecap="round" stroke-linejoin="round"/>
<path opacity="0.7" d="M19.6177 9.21033H37.0675" stroke="#AB6939" stroke-width="1.2" stroke-miterlimit="10" stroke-linecap="round" stroke-linejoin="round"/>
<path opacity="0.7" d="M21.2793 12.5791H37.0672" stroke="#AB6939" stroke-width="1.2" stroke-miterlimit="10" stroke-linecap="round" stroke-linejoin="round"/>
<path opacity="0.7" d="M23.3745 15.9479H37.0674" stroke="#AB6939" stroke-width="1.2" stroke-miterlimit="10" stroke-linecap="round" stroke-linejoin="round"/>
<path opacity="0.7" d="M23.8491 19.3168H37.0673" stroke="#AB6939" stroke-width="1.2" stroke-miterlimit="10" stroke-linecap="round" stroke-linejoin="round"/>
<path opacity="0.7" d="M22.1226 40.2582V40.8775" stroke="#AB6939" stroke-width="1.2" stroke-miterlimit="10" stroke-linecap="round" stroke-linejoin="round"/>
<path opacity="0.7" d="M32.8779 32.6809C32.8779 31.5667 33.7812 30.6634 34.8954 30.6634" stroke="#AB6939" stroke-width="1.2" stroke-miterlimit="10" stroke-linecap="round" stroke-linejoin="round"/>
<path opacity="0.7" d="M37.0452 34.5578L37.0824 30.1336C37.0849 29.8441 37.3385 29.6246 37.6263 29.656C40.4782 29.9679 42.6899 32.5308 42.4357 35.5038C42.2121 38.1199 40.1029 40.221 37.4858 40.4348C34.5039 40.6785 31.943 38.4428 31.6539 35.5786C31.6249 35.2905 31.8464 35.0386 32.136 35.0386H36.5603C36.8266 35.0388 37.0431 34.8241 37.0452 34.5578Z" stroke="#AB6939" stroke-width="1.2" stroke-miterlimit="10" stroke-linecap="round" stroke-linejoin="round"/>
<path opacity="0.7" d="M44.1069 31.0844C42.7224 28.6266 40.0899 26.9656 37.0679 26.9656C32.608 26.9656 28.9927 30.581 28.9927 35.0408C28.9927 39.5006 32.608 43.1161 37.0679 43.1161C41.5278 43.1161 45.1432 39.5006 45.1432 35.0408C45.1432 34.5649 45.0997 34.0993 45.0206 33.6459" stroke="#AB6939" stroke-width="1.2" stroke-miterlimit="10" stroke-linecap="round" stroke-linejoin="round"/>
<path opacity="0.7" d="M0.703125 47.2969H47.2969" stroke="#AB6939" stroke-width="1.2" stroke-miterlimit="10" stroke-linecap="round" stroke-linejoin="round"/>
</g>
<defs>
<clipPath id="clip0_1754_4021">
<rect width="48" height="48" fill="white"/>
</clipPath>
</defs>
</svg>
