<svg width="48" height="48" viewBox="0 0 48 48" fill="none" xmlns="http://www.w3.org/2000/svg">
<g clip-path="url(#clip0_1754_4048)">
<path opacity="0.7" d="M43.3416 16.2348H44.4836C46.0372 16.2348 47.2964 14.9756 47.2964 13.422V11.964C47.2964 10.8351 46.6214 9.815 45.5825 9.37433L26.1966 1.14966C24.793 0.55428 23.2066 0.55428 21.803 1.14966L2.41707 9.37433C1.3782 9.815 0.703125 10.8351 0.703125 11.964V13.422C0.703125 14.9756 1.96233 16.2348 3.51594 16.2348H4.65794" stroke="#AB6939" stroke-width="1.2" stroke-miterlimit="10" stroke-linecap="round" stroke-linejoin="round"/>
<path opacity="0.7" d="M4.93896 42.6857V13.4109C4.93896 12.839 5.28494 12.3242 5.81469 12.1086L22.9382 5.13185C23.6189 4.85432 24.3802 4.85432 25.0609 5.13185L34.0431 8.79132" stroke="#AB6939" stroke-width="1.2" stroke-miterlimit="10" stroke-linecap="round" stroke-linejoin="round"/>
<path opacity="0.7" d="M37.0835 10.0299L42.185 12.1086C42.7147 12.3242 43.0607 12.839 43.0607 13.4109V42.6857" stroke="#AB6939" stroke-width="1.2" stroke-miterlimit="10" stroke-linecap="round" stroke-linejoin="round"/>
<path opacity="0.7" d="M5.30615 17.6465H42.6946" stroke="#AB6939" stroke-width="1.2" stroke-miterlimit="10" stroke-linecap="round" stroke-linejoin="round"/>
<path opacity="0.7" d="M42.6941 30.3533H11.8984" stroke="#AB6939" stroke-width="1.2" stroke-miterlimit="10" stroke-linecap="round" stroke-linejoin="round"/>
<path opacity="0.7" d="M8.61683 30.3533H5.30615" stroke="#AB6939" stroke-width="1.2" stroke-miterlimit="10" stroke-linecap="round" stroke-linejoin="round"/>
<path opacity="0.7" d="M23.2944 33.1776H24.7064V40.2371" stroke="#AB6939" stroke-width="1.2" stroke-miterlimit="10" stroke-linecap="round" stroke-linejoin="round"/>
<path opacity="0.7" d="M25.9529 27.5299H22.509C22.433 27.5299 22.3883 27.4448 22.4319 27.3827L24.8599 23.9173C26.5756 21.4659 24.8171 20.4703 23.8313 20.4703C22.9468 20.4703 22.2097 21.1013 22.0454 21.9376" stroke="#AB6939" stroke-width="1.2" stroke-miterlimit="10" stroke-linecap="round" stroke-linejoin="round"/>
<path opacity="0.7" d="M22.2134 9.00974C22.3776 8.17339 23.1148 7.54248 23.9992 7.54248C25.0044 7.54248 25.8193 8.35735 25.8193 9.36256C25.8193 10.3678 25.0044 11.1826 23.9992 11.1826" stroke="#AB6939" stroke-width="1.2" stroke-miterlimit="10" stroke-linecap="round" stroke-linejoin="round"/>
<path opacity="0.7" d="M23.9997 11.1825C25.0049 11.1825 25.8197 11.9974 25.8197 13.0026C25.8197 14.0078 25.0049 14.8227 23.9997 14.8227C23.0806 14.8227 22.3207 14.1415 22.1972 13.2565C22.1857 13.1735 22.1797 13.0887 22.1797 13.0027" stroke="#AB6939" stroke-width="1.2" stroke-miterlimit="10" stroke-linecap="round" stroke-linejoin="round"/>
<path opacity="0.7" d="M36.3152 43.0607H45.89C46.6664 43.0607 47.2964 43.6908 47.2964 44.4671V45.8904C47.2964 46.6668 46.6664 47.2968 45.89 47.2968H2.10953C1.3332 47.2968 0.703125 46.6668 0.703125 45.8904V44.4671C0.703125 43.6908 1.3332 43.0607 2.10953 43.0607H33.0336" stroke="#AB6939" stroke-width="1.2" stroke-miterlimit="10" stroke-linecap="round" stroke-linejoin="round"/>
</g>
<defs>
<clipPath id="clip0_1754_4048">
<rect width="48" height="48" fill="white"/>
</clipPath>
</defs>
</svg>
