<svg width="32" height="33" viewBox="0 0 32 33" fill="none" xmlns="http://www.w3.org/2000/svg">
<path d="M20.0107 21.6163C22.5396 20.2068 24.2501 17.5056 24.2501 14.405C24.2501 14.3452 24.2495 14.2855 24.2483 14.226" stroke="#234B34" stroke-width="0.8" stroke-miterlimit="10" stroke-linecap="round" stroke-linejoin="round"/>
<path d="M16 15.9517V14.405" stroke="#234B34" stroke-width="0.8" stroke-miterlimit="10" stroke-linecap="round" stroke-linejoin="round"/>
<path d="M11.1143 21.0535C11.4079 21.2696 11.7163 21.4667 12.0377 21.6431" stroke="#234B34" stroke-width="0.8" stroke-miterlimit="10" stroke-linecap="round" stroke-linejoin="round"/>
<path d="M7.8193 13.3309C7.77357 13.6825 7.75 14.041 7.75 14.405C7.75 16.5094 8.5379 18.4298 9.83481 19.8872" stroke="#234B34" stroke-width="0.8" stroke-miterlimit="10" stroke-linecap="round" stroke-linejoin="round"/>
<path d="M15.5107 17.402V20.402" stroke="#234B34" stroke-width="0.8" stroke-miterlimit="10" stroke-linecap="round" stroke-linejoin="round"/>
<path d="M17.0107 17.402V20.402" stroke="#234B34" stroke-width="0.8" stroke-miterlimit="10" stroke-linecap="round" stroke-linejoin="round"/>
<path d="M18.5107 18.8808V20.402" stroke="#234B34" stroke-width="0.8" stroke-miterlimit="10" stroke-linecap="round" stroke-linejoin="round"/>
<path d="M18.9999 26.0172V25.0011C18.9999 24.9351 19.0283 24.873 19.0762 24.8275C19.6517 24.2809 20.0105 23.5083 20.0105 22.652V18.902C20.0105 18.4981 19.7002 18.1506 19.2967 18.1317C18.866 18.1114 18.5105 18.4546 18.5105 18.8808V17.4232C18.5105 17.0194 18.2002 16.6719 17.7968 16.6529C17.3661 16.6326 17.0105 16.9758 17.0105 17.4021V16.6763C17.0105 16.2724 16.7002 15.9249 16.2967 15.9059C15.866 15.8857 15.5105 16.2289 15.5105 16.6551V17.4021C15.5105 16.9759 15.1549 16.6327 14.7242 16.6529C14.3208 16.6719 14.0105 17.0194 14.0105 17.4233V21.7732L13.6328 21.3956C13.2557 21.0184 12.6442 21.0184 12.267 21.3956L12.06 21.6026C11.9657 21.6969 11.9657 21.8497 12.06 21.944L14.869 24.7531C14.9601 24.8459 15.0573 24.9329 15.1598 25.0134C15.2173 25.0585 15.2499 25.1282 15.2499 25.2013V26.0173" stroke="#234B34" stroke-width="0.8" stroke-miterlimit="10" stroke-linecap="round" stroke-linejoin="round"/>
<path d="M19 26.0172H14.7414C14.6081 26.0172 14.5 26.1253 14.5 26.2586V27.9476C14.5 28.081 14.6081 28.1891 14.7414 28.1891H18.7586C18.8919 28.1891 19 28.081 19 27.9476V26.0172Z" stroke="#234B34" stroke-width="0.8" stroke-miterlimit="10" stroke-linecap="round" stroke-linejoin="round"/>
<path d="M18.8403 13.3304L21.4384 11.8304" stroke="#234B34" stroke-width="0.8" stroke-miterlimit="10" stroke-linecap="round" stroke-linejoin="round"/>
<path d="M18.0903 12.0313L20.6884 10.5313" stroke="#234B34" stroke-width="0.8" stroke-miterlimit="10" stroke-linecap="round" stroke-linejoin="round"/>
<path d="M18.6211 9.99286L19.9384 9.2323" stroke="#234B34" stroke-width="0.8" stroke-miterlimit="10" stroke-linecap="round" stroke-linejoin="round"/>
<path d="M22.2905 13.0703L23.3756 12.4439L23.2374 12.9597C23.0993 13.4749 23.4051 14.0045 23.9203 14.1426L24.2031 14.2184C24.3319 14.2529 24.4643 14.1764 24.4988 14.0476L25.527 10.2104C25.5619 10.085 25.5886 9.95742 25.6071 9.82843C25.6174 9.7561 25.6614 9.69298 25.7247 9.65647L26.4315 9.24847" stroke="#234B34" stroke-width="0.8" stroke-miterlimit="10" stroke-linecap="round" stroke-linejoin="round"/>
<path d="M24.5562 6.00085L23.6762 6.50891C23.6191 6.54189 23.5511 6.54832 23.4878 6.52963C22.7267 6.30455 21.8782 6.38007 21.1366 6.80826L17.889 8.68325C17.5392 8.8852 17.3935 9.32773 17.5788 9.68657C17.7766 10.0697 18.2515 10.206 18.6207 9.99287L17.3583 10.7217C17.0086 10.9237 16.8628 11.3661 17.0481 11.725C17.2459 12.1082 17.7208 12.2445 18.09 12.0314L17.4614 12.3943C17.1117 12.5962 16.9659 13.0387 17.1512 13.3976C17.349 13.7807 17.8239 13.917 18.1931 13.7039L18.84 13.3305C18.4708 13.5436 18.3514 14.0231 18.5843 14.3859C18.8024 14.7258 19.2586 14.8208 19.6083 14.6189L20.8062 13.9273" stroke="#234B34" stroke-width="0.8" stroke-miterlimit="10" stroke-linecap="round" stroke-linejoin="round"/>
<path d="M24.5566 6.00085L26.6859 9.68888C26.7526 9.80434 26.9003 9.84394 27.0157 9.77725L27.8795 9.27856C27.9542 9.23544 28.0002 9.15571 28.0002 9.06947V4.4309C28.0002 4.24503 27.799 4.12885 27.6381 4.22181L24.5566 6.00085Z" stroke="#234B34" stroke-width="0.8" stroke-miterlimit="10" stroke-linecap="round" stroke-linejoin="round"/>
<path d="M14.769 13.6944L15.9998 14.405L17.3393 13.6317" stroke="#234B34" stroke-width="0.8" stroke-miterlimit="10" stroke-linecap="round" stroke-linejoin="round"/>
<path d="M20.2395 7.32624C19.0005 6.58257 17.5501 6.15497 15.9999 6.15497C14.7521 6.15497 13.569 6.43201 12.5088 6.92785" stroke="#234B34" stroke-width="0.8" stroke-miterlimit="10" stroke-linecap="round" stroke-linejoin="round"/>
<path d="M14.3994 11.9337L11.8013 10.4337" stroke="#234B34" stroke-width="0.8" stroke-miterlimit="10" stroke-linecap="round" stroke-linejoin="round"/>
<path d="M13.6494 13.2327L11.0513 11.7327" stroke="#234B34" stroke-width="0.8" stroke-miterlimit="10" stroke-linecap="round" stroke-linejoin="round"/>
<path d="M11.6186 13.7924L10.3013 13.0317" stroke="#234B34" stroke-width="0.8" stroke-miterlimit="10" stroke-linecap="round" stroke-linejoin="round"/>
<path d="M5.19336 10.6479L6.07334 11.156C6.13047 11.189 6.17007 11.2447 6.18547 11.3088C6.3711 12.0805 6.86076 12.7776 7.60239 13.2058L10.85 15.0807C11.1997 15.2827 11.6558 15.1877 11.874 14.8478C12.1069 14.4849 11.9874 14.0054 11.6183 13.7923L12.8807 14.5211C13.2304 14.7231 13.6865 14.628 13.9046 14.2882C14.1375 13.9253 14.0181 13.4458 13.649 13.2327L14.2775 13.5956C14.6273 13.7975 15.0834 13.7025 15.3015 13.3626C15.5344 12.9998 15.415 12.5203 15.0459 12.3072L14.399 11.9337C14.7681 12.1468 15.2431 12.0105 15.4409 11.6274C15.6261 11.2685 15.4804 10.826 15.1306 10.624L11.3635 8.44907L11.8794 8.31087C12.3946 8.17281 12.7003 7.64321 12.5623 7.12801L12.4865 6.84522C12.452 6.71644 12.3196 6.63999 12.1908 6.67447L8.35363 7.70266C8.22765 7.73516 8.10373 7.77577 7.98282 7.82435C7.91502 7.85158 7.83833 7.84497 7.77507 7.80841L7.06835 7.40036" stroke="#234B34" stroke-width="0.8" stroke-miterlimit="10" stroke-linecap="round" stroke-linejoin="round"/>
<path d="M5.91836 9.39259L5.19358 10.6479L4.12072 10.0285C4.04602 9.98539 4 9.90567 4 9.81942V5.1809C4 4.99503 4.20122 4.87885 4.36217 4.97181L7.23445 6.63012C7.34991 6.69681 7.3895 6.84448 7.32282 6.95994L6.78439 7.89261" stroke="#234B34" stroke-width="0.8" stroke-miterlimit="10" stroke-linecap="round" stroke-linejoin="round"/>
</svg>
