<svg width="14" height="14" viewBox="0 0 14 14" fill="none" xmlns="http://www.w3.org/2000/svg">
<path d="M6.58 4.9H12.18C11.865 4.095 11.3839 3.40363 10.7366 2.8259C10.0893 2.24817 9.34547 1.84287 8.505 1.61L6.58 4.9ZM4.97 6.3L7.77 1.47C7.64167 1.44667 7.51333 1.42917 7.385 1.4175C7.25667 1.40583 7.12833 1.4 7 1.4C6.23 1.4 5.5125 1.54583 4.8475 1.8375C4.1825 2.12917 3.59333 2.52 3.08 3.01L4.97 6.3ZM1.575 8.4H5.39L2.59 3.57C2.21667 4.04833 1.925 4.57637 1.715 5.1541C1.505 5.73183 1.4 6.34713 1.4 7C1.4 7.245 1.4147 7.48137 1.4441 7.7091C1.4735 7.93683 1.51713 8.16713 1.575 8.4ZM5.495 12.39L7.385 9.1H1.82C2.135 9.905 2.61637 10.5964 3.2641 11.1741C3.91183 11.7518 4.65547 12.1571 5.495 12.39ZM7 12.6C7.77 12.6 8.4875 12.4542 9.1525 12.1625C9.8175 11.8708 10.4067 11.48 10.92 10.99L9.03 7.7L6.23 12.53C6.35833 12.5533 6.48387 12.5708 6.6066 12.5825C6.72933 12.5942 6.86047 12.6 7 12.6ZM11.41 10.43C11.7833 9.95167 12.075 9.42387 12.285 8.8466C12.495 8.26933 12.6 7.6538 12.6 7C12.6 6.755 12.5855 6.51887 12.5566 6.2916C12.5277 6.06433 12.4838 5.8338 12.425 5.6H8.61L11.41 10.43ZM7 14C6.04333 14 5.13917 13.8161 4.2875 13.4484C3.43583 13.0807 2.6922 12.579 2.0566 11.9434C1.421 11.3078 0.919333 10.5642 0.5516 9.7125C0.183867 8.86083 0 7.95667 0 7C0 6.03167 0.183867 5.1247 0.5516 4.2791C0.919333 3.4335 1.421 2.69267 2.0566 2.0566C2.6922 1.42053 3.43583 0.918867 4.2875 0.5516C5.13917 0.184333 6.04333 0.000466667 7 0C7.96833 0 8.87553 0.183867 9.7216 0.5516C10.5677 0.919333 11.3083 1.421 11.9434 2.0566C12.5785 2.6922 13.0802 3.43303 13.4484 4.2791C13.8166 5.12517 14.0005 6.03213 14 7C14 7.95667 13.8161 8.86083 13.4484 9.7125C13.0807 10.5642 12.579 11.308 11.9434 11.9441C11.3078 12.5802 10.567 13.0818 9.7209 13.4491C8.87483 13.8164 7.96787 14 7 14Z" fill="#234B34"/>
</svg>
