<svg width="38" height="25" viewBox="0 0 38 25" fill="none" xmlns="http://www.w3.org/2000/svg">
<path d="M28.4365 21.5425L28.6847 21.6666L31.2901 22.4109C31.5382 22.535 31.9104 22.535 32.1586 22.535H32.4067L36.0047 22.0388C36.501 21.9148 36.9973 22.2869 36.9973 22.7832C37.1213 23.2795 36.7491 23.6516 36.3769 23.7757H36.2529L32.6549 24.272C32.1586 24.396 31.6623 24.272 31.042 24.272L30.7938 24.1479L28.1884 23.4036C27.8162 23.2795 27.444 23.2795 26.9477 23.4036H26.6996L24.3422 24.1479C23.5978 24.3961 22.8534 24.396 22.2331 24.272L21.9849 24.1479L19.6276 23.4036C19.2554 23.2795 18.8832 23.2795 18.3869 23.4036H18.1388L15.7815 24.1479C15.0371 24.3961 14.2927 24.396 13.6723 24.272L13.4242 24.1479L11.0669 23.4036C10.6947 23.2795 10.3225 23.2795 9.82618 23.4036H9.57805L6.97261 24.1479C6.47633 24.272 5.98005 24.396 5.48377 24.272H5.11157L1.51357 23.7757C1.0173 23.6516 0.645095 23.2795 0.769164 22.7832C0.893233 22.2869 1.26544 22.0388 1.63764 22.0388H1.76171L5.35971 22.535C5.60784 22.535 5.98006 22.535 6.22819 22.535H6.47633L9.08177 21.7906C9.82619 21.5425 10.5706 21.5425 11.1909 21.6666L11.4391 21.7906L13.7964 22.535C14.1686 22.6591 14.5408 22.6591 15.0371 22.535H15.2852L17.6425 21.7906C18.3869 21.5425 19.1313 21.5425 19.7517 21.6666L19.9998 21.7906L22.3571 22.535C22.7294 22.6591 23.1016 22.6591 23.5978 22.535H23.846L26.2033 21.7906C27.0718 21.4184 27.8162 21.4185 28.4365 21.5425ZM15.0371 0.574861L15.2852 0.6989L20.8683 4.91727C21.3646 5.28948 21.8609 5.78572 22.2331 6.282L22.3571 6.53023L24.7144 10.5004C24.7144 10.6244 24.8385 10.7486 24.8385 10.8726L26.4514 10.3763C27.1958 10.1282 27.9402 10.1282 28.5606 10.2523L28.8087 10.3763L31.4142 11.1207C31.6623 11.2448 32.0345 11.2448 32.2827 11.2448H32.5308L36.1288 10.7484C36.6251 10.6244 37.1213 10.9967 37.1213 11.493C37.2454 11.9893 36.8732 12.3614 36.501 12.4854H36.3769L32.7789 12.9817C32.2826 13.1058 31.7864 12.9817 31.166 12.9817L30.9179 12.8577L28.3124 12.1133C27.9402 11.9893 27.568 11.9893 27.0718 12.1133H26.8236L24.4663 12.8577C23.7219 13.1058 22.9775 13.1058 22.3571 12.9817L22.109 12.8577L19.7517 12.1133C19.3795 11.9893 19.0073 11.9893 18.511 12.1133H18.2629L15.9056 12.8577C15.1611 13.1058 14.4167 13.1058 13.7964 12.9817L13.5482 12.8577L11.1909 12.1133C10.8187 11.9893 10.4465 11.9893 9.95026 12.1133H9.70212L7.09667 12.8577C6.6004 12.9818 6.10413 13.1058 5.60785 12.9817H5.23564L1.63764 12.4854C1.14137 12.3614 0.769162 11.9893 0.893231 11.493C1.0173 10.9967 1.38951 10.7484 1.76171 10.7484H1.88578L5.48377 11.2448C5.73191 11.2448 6.10412 11.2448 6.35226 11.2448H6.6004L7.84108 10.8726L14.4167 6.65426L13.176 5.53761L9.95026 7.27461C8.83364 7.89495 7.59294 7.64679 6.72446 6.7783L6.6004 6.65426C5.85598 5.66171 5.98005 4.17292 7.09667 3.42851L7.22074 3.30432L11.5631 0.450823C12.4316 -0.169522 13.9205 -0.169552 15.0371 0.574861ZM12.4316 2.06363L12.3076 2.18782L7.96515 5.04131C7.71701 5.16538 7.71702 5.41352 7.84108 5.66165C8.08922 5.90979 8.33737 6.03395 8.70957 5.90988H8.83364L12.5557 3.80062C12.8038 3.67655 13.176 3.67655 13.5482 3.80062L13.6723 3.92466L16.2778 6.282C16.65 6.6542 16.65 7.27452 16.2778 7.64672L16.1537 7.77091L11.5631 10.7484L13.7964 11.3688C14.1686 11.4929 14.5408 11.4929 15.0371 11.3688H15.2852L17.6425 10.6244C18.3869 10.3763 19.1313 10.3763 19.7517 10.5004L19.9998 10.6244L22.3571 11.3688C22.4812 11.3688 22.6053 11.3689 22.6053 11.493L20.4961 7.89495C20.248 7.52275 19.9998 7.27455 19.7517 6.90234L19.5036 6.65426L13.9205 2.43589C13.5483 1.81555 12.9279 1.81549 12.4316 2.06363ZM28.1884 1.56747C30.4216 1.56747 32.2827 3.42841 32.2827 5.66165C32.2827 7.89489 30.4216 9.75599 28.1884 9.75599C25.9551 9.75599 24.0941 7.89489 24.0941 5.66165C24.0941 3.42841 25.9551 1.56747 28.1884 1.56747ZM28.1884 3.42851C26.9477 3.42851 25.9551 4.42096 25.9551 5.66165C25.9551 6.90234 26.9477 7.89495 28.1884 7.89495C29.4291 7.89495 30.4216 6.90234 30.4216 5.66165C30.4216 4.42096 29.4291 3.42851 28.1884 3.42851Z" fill="#234B34"/>
<path d="M26.3273 16.0837C27.0718 15.8356 27.8162 15.8356 28.4365 15.9597L28.6847 16.0837L31.2901 16.8281C31.5382 16.9522 31.9104 16.9521 32.1586 16.9521H32.4067L36.0047 16.456C36.501 16.3319 36.9973 16.7041 36.9973 17.2004C37.1213 17.6966 36.7491 18.0688 36.3769 18.1928H36.2529L32.6549 18.6891C32.1586 18.8132 31.6623 18.6891 31.042 18.6891L30.7938 18.5651L28.1884 17.8207C27.8162 17.6966 27.444 17.6966 26.9477 17.8207H26.6996L24.3422 18.5651C23.5978 18.8132 22.8534 18.8132 22.2331 18.6891L21.9849 18.5651L19.6276 17.8207C19.2554 17.6966 18.8832 17.6966 18.3869 17.8207H18.1388L15.7815 18.5651C15.0371 18.8132 14.2927 18.8132 13.6723 18.6891L13.4242 18.5651L11.0669 17.8207C10.6947 17.6966 10.3225 17.6966 9.82618 17.8207H9.57805L6.97261 18.5651C6.47633 18.6892 5.98005 18.8132 5.48377 18.6891H5.11157L1.51357 18.1928C1.0173 18.0688 0.645095 17.6966 0.769164 17.2004C0.893233 16.7041 1.26544 16.456 1.63764 16.456H1.76171L5.35971 16.9521C5.60784 16.9521 5.98006 16.9521 6.22819 16.9521H6.47633L9.08177 16.2078C9.82619 15.9596 10.5706 15.9596 11.1909 16.0837L11.4391 16.2078L13.7964 16.9521C14.1686 17.0762 14.5408 17.0762 15.0371 16.9521H15.2852L17.6425 16.2078C18.3869 15.9596 19.1313 15.9596 19.7517 16.0837L19.9998 16.2078L22.3571 16.9521C22.7294 17.0762 23.1016 17.0762 23.5978 16.9521H23.846L26.3273 16.0837Z" fill="#AB6939"/>
</svg>
