<svg width="32" height="32" viewBox="0 0 32 32" fill="none" xmlns="http://www.w3.org/2000/svg">
<path fill-rule="evenodd" clip-rule="evenodd" d="M6.79987 9.20009H14.7997C15.0206 9.20009 15.1996 9.02099 15.1996 8.80012C15.1996 8.5792 15.0206 8.40015 14.7997 8.40015H6.79987C6.57896 8.40015 6.3999 8.57925 6.3999 8.80012C6.3999 9.02103 6.57901 9.20009 6.79987 9.20009Z" fill="#234B34"/>
<path fill-rule="evenodd" clip-rule="evenodd" d="M6.79987 11.2001H14.7997C15.0206 11.2001 15.1996 11.021 15.1996 10.8001C15.1996 10.5792 15.0206 10.4001 14.7997 10.4001H6.79987C6.57896 10.4001 6.3999 10.5793 6.3999 10.8001C6.3999 11.021 6.57901 11.2001 6.79987 11.2001Z" fill="#234B34"/>
<path fill-rule="evenodd" clip-rule="evenodd" d="M6.79987 13.2H14.7997C15.0206 13.2 15.1996 13.0209 15.1996 12.8C15.1996 12.5791 15.0206 12.4 14.7997 12.4H6.79987C6.57896 12.4 6.3999 12.5791 6.3999 12.8C6.3999 13.0209 6.57901 13.2 6.79987 13.2Z" fill="#234B34"/>
<path fill-rule="evenodd" clip-rule="evenodd" d="M6.79987 15.2H14.7997C15.0206 15.2 15.1996 15.0209 15.1996 14.8C15.1996 14.5791 15.0206 14.4 14.7997 14.4H6.79987C6.57896 14.4 6.3999 14.5791 6.3999 14.8C6.3999 15.0209 6.57901 15.2 6.79987 15.2Z" fill="#234B34"/>
<path fill-rule="evenodd" clip-rule="evenodd" d="M13.8157 16.7999C13.8157 16.579 13.6366 16.3999 13.4157 16.3999H6.79987C6.57896 16.3999 6.3999 16.579 6.3999 16.7999C6.3999 17.0208 6.57901 17.1998 6.79987 17.1998H13.4157C13.6366 17.1998 13.8157 17.0208 13.8157 16.7999Z" fill="#234B34"/>
<path fill-rule="evenodd" clip-rule="evenodd" d="M12.6437 18.3998H6.79987C6.57896 18.3998 6.3999 18.5789 6.3999 18.7998C6.3999 19.0207 6.57901 19.1997 6.79987 19.1997H12.6437C12.8646 19.1997 13.0437 19.0206 13.0437 18.7998C13.0437 18.5789 12.8646 18.3998 12.6437 18.3998Z" fill="#234B34"/>
<path d="M23.9994 14.3599V10.8C23.9994 10.1373 23.4622 9.60005 22.7995 9.60005H17.5996V7.20012C17.5996 6.53742 17.0623 6.00015 16.3996 6.00015H15.9996V5.20021C15.9996 4.53751 15.4624 4.00024 14.7997 4.00024H6.7999C6.1372 4.00024 5.59994 4.53751 5.59994 5.20021V6.0002H5.19996C4.53727 6.0002 4 6.53747 4 7.20016V23.5997C4 24.2624 4.53727 24.7997 5.19996 24.7997H14.8173C16.4951 27.3157 19.5671 28.5142 22.5055 27.7991C25.4439 27.084 27.6216 24.608 27.9557 21.6024C28.2899 18.5967 26.709 15.7028 23.9994 14.3599ZM22.7995 10.4C23.0204 10.4 23.1994 10.5791 23.1994 10.8V14.0199C21.3654 13.3594 19.3403 13.4823 17.5996 14.3599V12.4H21.5994C21.8204 12.4 21.9994 12.2209 21.9994 12C21.9994 11.7791 21.8203 11.6 21.5994 11.6H17.5996V10.4001L22.7995 10.4ZM6.39993 5.20021C6.39993 4.97929 6.57903 4.80024 6.7999 4.80024H14.7997C15.0206 4.80024 15.1997 4.97934 15.1997 5.20021V6.0002H6.39993V5.20021ZM9.59985 23.9997V21.5997C9.59985 21.3788 9.77895 21.1998 9.99982 21.1998H11.5998C11.8207 21.1998 11.9997 21.3789 11.9997 21.5997V23.9997H9.59985ZM12.7997 23.9997V21.5997C12.7997 20.937 12.2625 20.3998 11.5998 20.3998H9.99982C9.33712 20.3998 8.79986 20.937 8.79986 21.5997V23.9997H5.19996C4.97905 23.9997 4.79999 23.8206 4.79999 23.5997V7.20016C4.79999 6.97925 4.9791 6.80019 5.19996 6.80019H16.3996C16.6205 6.80019 16.7996 6.9793 16.7996 7.20016V14.8175C13.7841 16.8228 12.7374 20.762 14.3597 23.9997H12.7997ZM20.7995 27.1995C17.265 27.1995 14.3997 24.3342 14.3997 20.7997C14.3997 17.2652 17.265 14.4 20.7995 14.4C24.334 14.4 27.1993 17.2652 27.1993 20.7997C27.1951 24.3325 24.3323 27.1954 20.7995 27.1995Z" fill="#234B34"/>
<path d="M24.7989 16.7999C24.7989 16.3581 24.4408 16 23.9989 16H23.199C22.7753 16.0016 22.4265 16.3333 22.4034 16.7564L21.3514 15.8112C21.0376 15.5279 20.5604 15.5279 20.2466 15.8112L16.2695 19.3847C16.0184 19.6073 15.9321 19.9625 16.0531 20.2755C16.1723 20.5849 16.4675 20.791 16.7991 20.7963V24.7997C16.7991 25.2416 17.1573 25.5997 17.5991 25.5997H23.9989C24.4407 25.5997 24.7989 25.2416 24.7989 24.7997V20.7963C25.1303 20.7911 25.4254 20.5854 25.5449 20.2763C25.6659 19.9633 25.5796 19.6081 25.3285 19.3855L24.7989 18.9083V16.7999H24.7989ZM23.199 16.7999H23.999V18.1895L23.199 17.4695V16.7999ZM20.8167 16.4064L24.7762 19.9998H20.7991L16.8044 19.9794L20.8167 16.4064ZM20.3991 24.7997V23.5997C20.3991 23.3788 20.5782 23.1997 20.7991 23.1997C21.0199 23.1997 21.199 23.3788 21.199 23.5997V24.7997H20.3991ZM21.999 24.7997V23.5997C21.999 22.937 21.4618 22.3998 20.7991 22.3998C20.1364 22.3998 19.5991 22.937 19.5991 23.5997V24.7997H17.5992V20.7998H23.9989V24.7997H21.999Z" fill="#234B34"/>
</svg>
