<svg width="24" height="24" viewBox="0 0 24 24" fill="none" xmlns="http://www.w3.org/2000/svg">
<path d="M14.6711 9.14906C15.6482 9.14906 16.4403 8.35695 16.4403 7.37983C16.4403 6.40271 15.6482 5.6106 14.6711 5.6106C13.694 5.6106 12.9019 6.40271 12.9019 7.37983C12.9019 8.35695 13.694 9.14906 14.6711 9.14906Z" fill="white"/>
<path d="M1 16.4159C1.02165 17.6528 1.52826 18.8317 2.41071 19.6987C3.29316 20.5658 4.48085 21.0515 5.71795 21.0513H9.82256M1 16.4159V5.71795C1 4.46667 1.49707 3.26664 2.38186 2.38186C3.26664 1.49707 4.46667 1 5.71795 1H16.3333C17.5846 1 18.7846 1.49707 19.6694 2.38186C20.5542 3.26664 21.0513 4.46667 21.0513 5.71795V9.82256M1 16.4159L1.20995 16.18L4.99138 11.6661C5.2128 11.4019 5.48944 11.1893 5.80183 11.0435C6.11423 10.8977 6.45479 10.8222 6.79954 10.8222C7.14429 10.8222 7.48485 10.8977 7.79724 11.0435C8.10964 11.1893 8.38628 11.4019 8.60769 11.6661L10.0726 13.4141" stroke="white" stroke-width="1.5" stroke-linecap="round" stroke-linejoin="round"/>
<path fill-rule="evenodd" clip-rule="evenodd" d="M17.5126 24C19.2331 24 20.8831 23.3165 22.0997 22.0999C23.3163 20.8834 23.9997 19.2333 23.9997 17.5128C23.9997 15.7923 23.3163 14.1423 22.0997 12.9257C20.8831 11.7091 19.2331 11.0256 17.5126 11.0256C15.7921 11.0256 14.142 11.7091 12.9254 12.9257C11.7089 14.1423 11.0254 15.7923 11.0254 17.5128C11.0254 19.2333 11.7089 20.8834 12.9254 22.0999C14.142 23.3165 15.7921 24 17.5126 24ZM17.5126 13.3929C17.669 13.3929 17.819 13.455 17.9296 13.5656C18.0402 13.6762 18.1023 13.8262 18.1023 13.9826V16.9231H21.0428C21.1992 16.9231 21.3492 16.9852 21.4598 17.0958C21.5704 17.2064 21.6325 17.3564 21.6325 17.5128C21.6325 17.6692 21.5704 17.8192 21.4598 17.9298C21.3492 18.0404 21.1992 18.1026 21.0428 18.1026H18.1023V21.0442C18.1023 21.2006 18.0402 21.3506 17.9296 21.4612C17.819 21.5718 17.669 21.6339 17.5126 21.6339C17.3562 21.6339 17.2062 21.5718 17.0956 21.4612C16.985 21.3506 16.9228 21.2006 16.9228 21.0442V18.1026H13.9824C13.826 18.1026 13.676 18.0404 13.5654 17.9298C13.4548 17.8192 13.3926 17.6692 13.3926 17.5128C13.3926 17.3564 13.4548 17.2064 13.5654 17.0958C13.676 16.9852 13.826 16.9231 13.9824 16.9231H16.9228V13.9826C16.9228 13.8262 16.985 13.6762 17.0956 13.5656C17.2062 13.455 17.3562 13.3929 17.5126 13.3929Z" fill="white"/>
</svg>
