<svg width="25" height="25" viewBox="0 0 25 25" fill="none" xmlns="http://www.w3.org/2000/svg">
<path d="M12.2685 0.346405L16.6517 1.20586C16.7377 1.20586 16.8236 1.29178 16.9096 1.29178L16.9955 1.3777L19.5739 3.95606C19.7458 4.12795 19.8317 4.47177 19.7458 4.64366L19.6598 4.72958L18.0269 7.13598V13.5819C18.0269 14.3554 17.769 15.1289 17.2534 15.7305L17.0815 15.9024L16.0501 16.9337C15.7923 17.1916 15.4485 17.4494 15.0188 17.6213V18.4808L16.4799 18.9105H16.5658L21.4647 20.4575C22.4101 20.7153 23.0976 21.4029 23.5274 22.3483L23.6133 22.5202L24.043 23.8093C24.129 24.1531 23.9571 24.4969 23.6133 24.5829C23.2695 24.6688 23.0117 24.5828 22.8398 24.2391V24.1531L22.4101 22.864C22.2382 22.3483 21.8085 21.9186 21.2928 21.6607L21.1209 21.5748L16.6517 20.1997L14.8469 23.2937C14.675 23.6375 14.2453 23.7234 13.9015 23.4655L13.8156 23.3796L12.0967 21.6607L10.2059 23.3796C9.94803 23.6375 9.43236 23.5515 9.26047 23.2937L9.17453 23.2078L7.79941 20.1997L3.33026 21.5748C2.81459 21.7467 2.38487 22.1764 2.12703 22.6921L2.04109 22.864L1.61136 24.1531C1.52542 24.4969 1.09569 24.6688 0.837858 24.5829C0.494077 24.4969 0.322187 24.1531 0.408132 23.8953V23.8093L0.837858 22.5202C1.18164 21.5748 1.8692 20.8873 2.72865 20.5435L2.90054 20.4575L7.79941 18.9105H7.88535L9.34642 18.3949V17.5354C9.00264 17.3635 8.7448 17.1916 8.48697 17.0197L8.31508 16.8478L7.28373 15.8165C6.76806 15.3008 6.42428 14.5273 6.33834 13.7538V13.5819V7.13598L4.70538 4.72958C4.53349 4.47175 4.53349 4.21389 4.70538 3.95606L4.79133 3.87013L7.36968 1.29178C7.45563 1.20583 7.54157 1.20577 7.62751 1.11983H7.71346L12.0107 0.260376C12.1826 0.346321 12.2685 0.26046 12.2685 0.346405ZM14.5891 19.684L13.128 20.9732L14.2453 22.0904L15.4485 20.0277L14.5891 19.684ZM9.86209 19.77L9.00263 20.0277L9.94804 22.0904L11.1513 20.9732L9.86209 19.77ZM13.8156 17.9651H10.8075V18.8246L12.1826 20.1138L13.8156 18.7386V17.9651ZM12.2685 10.2301C10.2918 10.2301 8.57291 9.45652 7.71346 8.33923V13.6679C7.71346 14.0976 7.7994 14.4413 8.05724 14.7851L8.14318 14.9571L8.22913 15.043L9.26047 16.0743C9.60425 16.4181 10.034 16.59 10.4637 16.676H10.6356H13.6437C14.0734 16.676 14.5031 16.5041 14.8469 16.2462L14.9328 16.1602L15.9642 15.1289C16.308 14.7851 16.4799 14.3554 16.5658 13.9257V13.7538V8.42516C15.9642 9.4565 14.2453 10.2301 12.2685 10.2301ZM13.2999 13.4959C13.6437 13.4959 13.9875 13.7538 13.9875 14.1835C13.9875 14.5273 13.7296 14.7851 13.4718 14.7851H13.3858H11.6669C11.3232 14.7851 10.9794 14.5273 10.9794 14.0976C10.9794 13.7538 11.2372 13.4959 11.495 13.4959H11.581H13.2999ZM15.7064 7.65173H8.83075C9.34642 8.33929 10.6356 8.94091 12.2685 8.94091C13.9015 8.94091 15.1907 8.33929 15.7064 7.65173ZM12.2685 1.63558L8.31508 2.409L6.2524 4.4717L7.45563 6.36256H17.0815L18.2847 4.4717L16.222 2.409L12.2685 1.63558Z" fill="#234B34"/>
<path d="M12.2677 4.81504L11.4942 5.24477C11.4083 5.24477 11.3223 5.24479 11.3223 5.15884V5.07292L11.4942 4.21347L10.8926 3.61179C10.8066 3.52585 10.8066 3.52589 10.8926 3.43994H10.9785L11.838 3.35402L12.2677 2.58049C12.2677 2.49455 12.3536 2.49457 12.4396 2.49457C12.4396 2.49457 12.5255 2.49455 12.5255 2.58049L12.9553 3.35402L13.8147 3.43994C13.9007 3.43994 13.9007 3.52585 13.9007 3.61179V3.69771L13.299 4.29939L13.4709 5.15884C13.4709 5.24479 13.4709 5.33069 13.385 5.33069H13.299L12.2677 4.81504Z" fill="#AB6939"/>
</svg>
