<svg width="32" height="32" viewBox="0 0 32 32" fill="none" xmlns="http://www.w3.org/2000/svg">
<path d="M16 3.09961C16.5903 3.09961 17.1625 3.30611 17.6172 3.68262L17.6191 3.68359L26.418 10.9111C27.0353 11.4175 27.4004 12.1914 27.4004 13.0127V26.2158C27.4002 27.7141 26.2214 28.9002 24.8008 28.9004H7.19922C5.77857 28.9002 4.59982 27.7141 4.59961 26.2158V13.0127C4.59961 12.1914 4.96482 11.4175 5.58105 10.9111L14.3809 3.68457L14.3828 3.68262C14.8375 3.30611 15.4097 3.09961 16 3.09961Z" stroke="#234B34" stroke-width="1.2" stroke-linecap="round" stroke-linejoin="round"/>
<mask id="path-3-inside-1_1754_3178" fill="white">
<path d="M12.25 29.5002V21.2502C12.25 20.4546 12.5661 19.6915 13.1287 19.1289C13.6913 18.5663 14.4544 18.2502 15.25 18.2502H16.75C17.5456 18.2502 18.3087 18.5663 18.8713 19.1289C19.4339 19.6915 19.75 20.4546 19.75 21.2502V29.5002"/>
</mask>
<path d="M11.05 29.5002C11.05 30.163 11.5873 30.7002 12.25 30.7002C12.9127 30.7002 13.45 30.163 13.45 29.5002H11.05ZM15.25 18.2502V19.4502V18.2502ZM18.55 29.5002C18.55 30.163 19.0873 30.7002 19.75 30.7002C20.4127 30.7002 20.95 30.163 20.95 29.5002H18.55ZM12.25 29.5002H13.45V21.2502H12.25H11.05V29.5002H12.25ZM12.25 21.2502H13.45C13.45 20.7729 13.6396 20.315 13.9772 19.9775L13.1287 19.1289L12.2802 18.2804C11.4925 19.068 11.05 20.1363 11.05 21.2502H12.25ZM13.1287 19.1289L13.9772 19.9775C14.3148 19.6399 14.7726 19.4502 15.25 19.4502L15.25 18.2502L15.25 17.0502C14.1361 17.0502 13.0678 17.4927 12.2802 18.2804L13.1287 19.1289ZM15.25 18.2502V19.4502H16.75V18.2502V17.0502H15.25V18.2502ZM16.75 18.2502V19.4502C17.2274 19.4502 17.6852 19.6399 18.0228 19.9775L18.8713 19.1289L19.7198 18.2804C18.9322 17.4927 17.8639 17.0502 16.75 17.0502V18.2502ZM18.8713 19.1289L18.0228 19.9775C18.3604 20.315 18.55 20.7729 18.55 21.2502H19.75H20.95C20.95 20.1363 20.5075 19.068 19.7198 18.2804L18.8713 19.1289ZM19.75 21.2502H18.55V29.5002H19.75H20.95V21.2502H19.75Z" fill="#234B34" mask="url(#path-3-inside-1_1754_3178)"/>
</svg>
