<svg width="32" height="32" viewBox="0 0 32 32" fill="none" xmlns="http://www.w3.org/2000/svg">
<path d="M20.7363 11.9678V10.9503M22.9094 10.9503V11.9678" stroke="#234B34" stroke-width="0.8" stroke-miterlimit="22.9256"/>
<path fill-rule="evenodd" clip-rule="evenodd" d="M21.8229 5.81085C23.0181 5.81085 23.996 6.78872 23.996 7.98389V9.07041C23.996 10.2656 23.0181 11.2434 21.8229 11.2434C20.6278 11.2434 19.6499 10.2656 19.6499 9.07041V7.98389C19.6499 6.78872 20.6277 5.81085 21.8229 5.81085Z" stroke="#234B34" stroke-width="0.8" stroke-miterlimit="22.9256"/>
<path d="M22.9094 11.9678C22.9094 12.5679 22.4229 13.0544 21.8228 13.0544C21.2228 13.0544 20.7363 12.5679 20.7363 11.9678" stroke="#234B34" stroke-width="0.8" stroke-miterlimit="22.9256"/>
<path d="M23.996 9.07041C23.996 8.47282 23.507 7.98389 22.9095 7.98389H20.7364C20.1388 7.98389 19.6499 8.47282 19.6499 9.07041" stroke="#234B34" stroke-width="0.8" stroke-miterlimit="22.9256"/>
<path d="M19.6499 9.07045C19.6499 9.46884 19.3239 9.79479 18.9255 9.79479H18.2012V7.98393C18.2012 7.58554 18.5271 7.25958 18.9255 7.25958C19.3239 7.25958 19.6499 7.58554 19.6499 7.98393" stroke="#234B34" stroke-width="0.8" stroke-miterlimit="22.9256"/>
<path d="M22.185 14.5031H22.9094M20.7363 14.5031H21.4607" stroke="#234B34" stroke-width="0.8" stroke-miterlimit="22.9256"/>
<path d="M17.7424 5.54744C18.8288 4.58479 20.2577 4 21.823 4C25.2226 4 27.9799 6.7573 27.9799 10.1569C27.9799 13.5566 25.2226 16.3139 21.823 16.3139C18.4233 16.3139 15.666 13.5566 15.666 10.1569C15.666 8.59168 16.2509 7.16288 17.2134 6.07641" stroke="#234B34" stroke-width="0.8" stroke-miterlimit="22.9256"/>
<path d="M22.9093 11.9678L24.358 12.5342C25.1 12.8242 25.8067 13.1862 25.8067 13.9829V14.8509M17.8389 14.8509V13.9829C17.8389 13.1861 18.5456 12.8242 19.2876 12.5342L20.7363 11.9678" stroke="#234B34" stroke-width="0.8" stroke-miterlimit="22.9256"/>
<path d="M9.05029 23.6539V22.6364M11.2233 22.6364V23.6539" stroke="#234B34" stroke-width="0.8" stroke-miterlimit="22.9256"/>
<path fill-rule="evenodd" clip-rule="evenodd" d="M10.1369 17.4969C11.3321 17.4969 12.3099 18.4748 12.3099 19.67V20.7565C12.3099 21.9517 11.3321 22.9295 10.1369 22.9295C8.94173 22.9295 7.96387 21.9517 7.96387 20.7565V19.67C7.96387 18.4748 8.94173 17.4969 10.1369 17.4969Z" stroke="#234B34" stroke-width="0.8" stroke-miterlimit="22.9256"/>
<path d="M11.2233 23.6539C11.2233 24.254 10.7369 24.7404 10.1368 24.7404C9.53676 24.7404 9.05029 24.254 9.05029 23.6539" stroke="#234B34" stroke-width="0.8" stroke-miterlimit="22.9256"/>
<path d="M12.3099 20.7565C12.3099 20.1589 11.821 19.67 11.2234 19.67H9.05039C8.4528 19.67 7.96387 20.1589 7.96387 20.7565" stroke="#234B34" stroke-width="0.8" stroke-miterlimit="22.9256"/>
<path d="M10.1369 28C13.5373 28 16.2939 25.2434 16.2939 21.843C16.2939 18.4427 13.5373 15.6861 10.1369 15.6861C6.73654 15.6861 3.97998 18.4427 3.97998 21.843C3.97998 25.2434 6.73654 28 10.1369 28Z" stroke="#234B34" stroke-width="0.8" stroke-miterlimit="22.9256"/>
<path d="M11.2233 23.6539L12.672 24.2203C13.4139 24.5103 14.1207 24.8723 14.1207 25.669V26.537M6.15283 26.537V25.6689C6.15283 24.8721 6.85955 24.5103 7.60152 24.2202L9.05022 23.6539" stroke="#234B34" stroke-width="0.8" stroke-miterlimit="22.9256"/>
<path d="M20.145 24.016H18.4669C18.0685 24.016 17.7425 23.6901 17.7425 23.2917C17.7425 22.8933 18.0686 22.5673 18.4669 22.5673H21.823V20.2977H21.0987L22.5474 18.1247L23.9961 20.2978H23.2717V23.2917C23.2717 23.6901 22.9458 24.0161 22.5474 24.0161H20.8693M13.493 7.98389C13.8914 7.98389 14.2173 8.30979 14.2173 8.70823C14.2173 9.10662 13.8913 9.43258 13.493 9.43258H10.1369V11.7022H10.8613L9.41256 13.8752L7.96387 11.7022H8.68821V8.70823C8.68821 8.30989 9.01417 7.98389 9.41256 7.98389H13.493Z" stroke="#234B34" stroke-width="0.8" stroke-miterlimit="22.9256"/>
</svg>
