<svg width="32" height="32" viewBox="0 0 32 32" fill="none" xmlns="http://www.w3.org/2000/svg">
<path d="M9.6416 21.1027V24.1556C9.6416 24.5881 9.99223 24.9388 10.4247 24.9388H17.6133" stroke="#234B34" stroke-width="0.8" stroke-miterlimit="10" stroke-linejoin="round"/>
<path d="M19.4459 4.68768H10.4247C9.99223 4.68768 9.6416 5.03831 9.6416 5.4708V8.52378" stroke="#234B34" stroke-width="0.8" stroke-miterlimit="10" stroke-linejoin="round"/>
<path d="M7.94482 10.5735H11.3383" stroke="#234B34" stroke-width="0.8" stroke-miterlimit="10" stroke-linecap="round" stroke-linejoin="round"/>
<path d="M7.94482 12.2703H11.3383" stroke="#234B34" stroke-width="0.8" stroke-miterlimit="10" stroke-linecap="round" stroke-linejoin="round"/>
<path d="M7.94482 13.967H11.3383" stroke="#234B34" stroke-width="0.8" stroke-miterlimit="10" stroke-linecap="round" stroke-linejoin="round"/>
<path d="M25.6587 12.9513V11.166" stroke="#234B34" stroke-width="0.8" stroke-miterlimit="10" stroke-linecap="round" stroke-linejoin="round"/>
<path d="M26.5515 12.0587H24.7661" stroke="#234B34" stroke-width="0.8" stroke-miterlimit="10" stroke-linecap="round" stroke-linejoin="round"/>
<path d="M25.6587 27.5191V25.7337" stroke="#234B34" stroke-width="0.8" stroke-miterlimit="10" stroke-linecap="round" stroke-linejoin="round"/>
<path d="M26.5515 26.6265H24.7661" stroke="#234B34" stroke-width="0.8" stroke-miterlimit="10" stroke-linecap="round" stroke-linejoin="round"/>
<path d="M21.6363 7.52936C22.887 7.52936 23.9009 6.51543 23.9009 5.26468C23.9009 4.01393 22.887 3 21.6363 3C20.3855 3 19.3716 4.01393 19.3716 5.26468C19.3716 6.51543 20.3855 7.52936 21.6363 7.52936Z" stroke="#234B34" stroke-width="0.8" stroke-miterlimit="10" stroke-linecap="round" stroke-linejoin="round"/>
<path d="M21.6363 22.0971C22.887 22.0971 23.9009 21.0832 23.9009 19.8324C23.9009 18.5817 22.887 17.5677 21.6363 17.5677C20.3855 17.5677 19.3716 18.5817 19.3716 19.8324C19.3716 21.0832 20.3855 22.0971 21.6363 22.0971Z" stroke="#234B34" stroke-width="0.8" stroke-miterlimit="10" stroke-linecap="round" stroke-linejoin="round"/>
<path d="M25.6589 14.3796C26.9407 14.3796 27.9798 13.3405 27.9798 12.0586C27.9798 10.7768 26.9407 9.73767 25.6589 9.73767C24.377 9.73767 23.3379 10.7768 23.3379 12.0586C23.3379 13.3405 24.377 14.3796 25.6589 14.3796Z" stroke="#234B34" stroke-width="0.8" stroke-miterlimit="10" stroke-linecap="round" stroke-linejoin="round"/>
<path d="M25.6589 28.9474C26.9407 28.9474 27.9798 27.9083 27.9798 26.6264C27.9798 25.3446 26.9407 24.3055 25.6589 24.3055C24.377 24.3055 23.3379 25.3446 23.3379 26.6264C23.3379 27.9083 24.377 28.9474 25.6589 28.9474Z" stroke="#234B34" stroke-width="0.8" stroke-miterlimit="10" stroke-linecap="round" stroke-linejoin="round"/>
<path d="M25.6591 9.73771V9.35664C25.6591 8.34746 24.841 7.52936 23.8318 7.52936H19.4409C18.6568 7.52936 17.9884 8.02325 17.729 8.71683" stroke="#234B34" stroke-width="0.8" stroke-miterlimit="10" stroke-linecap="round" stroke-linejoin="round"/>
<path d="M17.6133 10.5441V11.2756C17.6133 11.708 17.9639 12.0587 18.3964 12.0587H23.3378" stroke="#234B34" stroke-width="0.8" stroke-miterlimit="10" stroke-linecap="round" stroke-linejoin="round"/>
<path d="M25.6588 24.3055V23.9244C25.6588 22.9152 24.8407 22.0971 23.8315 22.0971H19.4406C18.4314 22.0971 17.6133 22.9152 17.6133 23.9244V25.8433C17.6133 26.2758 17.9639 26.6264 18.3964 26.6264H19.2167" stroke="#234B34" stroke-width="0.8" stroke-miterlimit="10" stroke-linecap="round" stroke-linejoin="round"/>
<path d="M21.0439 26.6265H23.3378" stroke="#234B34" stroke-width="0.8" stroke-miterlimit="10" stroke-linecap="round" stroke-linejoin="round"/>
<path d="M13.4361 15.0188V9.04582C13.4361 8.75748 13.2024 8.52374 12.914 8.52374H6.36974C6.08139 8.52374 5.84766 8.75748 5.84766 9.04582V15.0188" stroke="#234B34" stroke-width="0.8" stroke-miterlimit="10" stroke-linejoin="round"/>
<path d="M3.97998 18.4797V20.5806C3.97998 20.8689 4.21372 21.1027 4.50206 21.1027H14.7815C15.0698 21.1027 15.3035 20.8689 15.3035 20.5806V13.7785C15.3035 13.6198 15.2313 13.4697 15.1073 13.3706L13.436 12.0352" stroke="#234B34" stroke-width="0.8" stroke-miterlimit="10" stroke-linecap="round" stroke-linejoin="round"/>
<path d="M5.84757 12.0352L4.17618 13.3706C4.05218 13.4697 3.97998 13.6198 3.97998 13.7785V16.6524" stroke="#234B34" stroke-width="0.8" stroke-miterlimit="10" stroke-linecap="round" stroke-linejoin="round"/>
<path d="M15.257 13.5645L9.80455 17.9188C9.70927 17.9949 9.57405 17.9949 9.47877 17.9188L4.02637 13.5645" stroke="#234B34" stroke-width="0.8" stroke-miterlimit="10" stroke-linejoin="round"/>
</svg>
