<svg width="32" height="32" viewBox="0 0 32 32" fill="none" xmlns="http://www.w3.org/2000/svg">
<path d="M23.2037 10.2646C23.7941 10.2639 24.36 10.0163 24.7775 9.57619C25.1949 9.13603 25.4297 8.53925 25.4304 7.91677V6.35153C25.4304 5.72884 25.1958 5.13165 24.7782 4.69134C24.3606 4.25103 23.7943 4.00366 23.2037 4.00366C22.6132 4.00366 22.0468 4.25103 21.6292 4.69134C21.2116 5.13165 20.9771 5.72884 20.9771 6.35153V7.91677C20.9777 8.53925 21.2125 9.13603 21.63 9.57619C22.0474 10.0163 22.6134 10.2639 23.2037 10.2646ZM21.9667 6.35153C21.9667 6.00559 22.097 5.67382 22.329 5.4292C22.561 5.18458 22.8756 5.04716 23.2037 5.04716C23.5318 5.04716 23.8464 5.18458 24.0784 5.4292C24.3104 5.67382 24.4407 6.00559 24.4407 6.35153V7.91677C24.4407 8.26271 24.3104 8.59448 24.0784 8.8391C23.8464 9.08372 23.5318 9.22114 23.2037 9.22114C22.8756 9.22114 22.561 9.08372 22.329 8.8391C22.097 8.59448 21.9667 8.26271 21.9667 7.91677V6.35153Z" fill="#234B34"/>
<path d="M11.3287 10.2646C11.9191 10.2639 12.485 10.0163 12.9025 9.57619C13.3199 9.13603 13.5547 8.53925 13.5554 7.91677V6.35153C13.5554 5.72884 13.3208 5.13165 12.9032 4.69134C12.4856 4.25103 11.9193 4.00366 11.3287 4.00366C10.7382 4.00366 10.1718 4.25103 9.75422 4.69134C9.33664 5.13165 9.10205 5.72884 9.10205 6.35153V7.91677C9.10272 8.53925 9.33752 9.13603 9.75496 9.57619C10.1724 10.0163 10.7384 10.2639 11.3287 10.2646ZM10.0917 6.35153C10.0917 6.00559 10.222 5.67382 10.454 5.4292C10.686 5.18458 11.0006 5.04716 11.3287 5.04716C11.6568 5.04716 11.9714 5.18458 12.2034 5.4292C12.4354 5.67382 12.5657 6.00559 12.5657 6.35153V7.91677C12.5657 8.26271 12.4354 8.59448 12.2034 8.8391C11.9714 9.08372 11.6568 9.22114 11.3287 9.22114C11.0006 9.22114 10.686 9.08372 10.454 8.8391C10.222 8.59448 10.0917 8.26271 10.0917 7.91677V6.35153Z" fill="#234B34"/>
<path d="M15.555 10.7865C15.5967 10.8621 15.643 10.9349 15.6934 11.0045L15.6998 11.0136C15.8009 11.1519 15.9178 11.2764 16.048 11.3842C16.0545 11.3896 16.0613 11.3946 16.0679 11.3999C16.1247 11.4457 16.1839 11.4882 16.2451 11.5273C16.2567 11.5347 16.268 11.5423 16.2796 11.5494C16.4175 11.6336 16.5646 11.6998 16.7176 11.7466C16.7374 11.7526 16.7574 11.7574 16.7774 11.7628C16.8358 11.7786 16.8951 11.7915 16.9554 11.8016C16.978 11.8053 17.0004 11.8095 17.0232 11.8125C17.1846 11.8357 17.3482 11.8357 17.5095 11.8125C17.5324 11.8095 17.5547 11.8053 17.5773 11.8016C17.6376 11.7915 17.697 11.7786 17.7553 11.7628C17.7753 11.7574 17.7954 11.7526 17.8151 11.7466C17.9681 11.6998 18.1152 11.6336 18.2531 11.5494C18.2648 11.5423 18.2761 11.5347 18.2876 11.5273C18.3488 11.4882 18.408 11.4457 18.4649 11.3999C18.4714 11.3946 18.4782 11.3896 18.4847 11.3842C18.6149 11.2764 18.7319 11.1519 18.8329 11.0136L18.8394 11.0045C18.8898 10.9349 18.936 10.8621 18.9778 10.7865C19.1531 10.4698 19.2455 10.1096 19.2456 9.74293V8.17769C19.2456 7.62419 19.0371 7.09335 18.6659 6.70196C18.2947 6.31058 17.7913 6.0907 17.2664 6.0907C16.7414 6.0907 16.238 6.31058 15.8668 6.70196C15.4956 7.09335 15.2871 7.62419 15.2871 8.17769V9.74293C15.2872 10.1096 15.3797 10.4698 15.555 10.7865ZM16.2767 8.17769C16.2767 7.90094 16.381 7.63552 16.5666 7.43983C16.7522 7.24413 17.0039 7.13419 17.2664 7.13419C17.5288 7.13419 17.7805 7.24413 17.9661 7.43983C18.1517 7.63552 18.256 7.90094 18.256 8.17769V9.74293C18.256 10.0197 18.1517 10.2851 17.9661 10.4808C17.7805 10.6765 17.5288 10.7864 17.2664 10.7864C17.0039 10.7864 16.7522 10.6765 16.5666 10.4808C16.381 10.2851 16.2767 10.0197 16.2767 9.74293V8.17769Z" fill="#234B34"/>
<path d="M25.9766 17.0474H23.9993C23.7981 17.0522 23.5998 17.0999 23.4166 17.1878C23.2282 17.2757 22.9691 17.4795 22.3537 18.3709L21.9644 18.9347H21.5575C21.5613 18.9909 21.5658 19.0469 21.5658 19.1041V19.9781H22.2161C22.2942 19.9782 22.3711 19.9587 22.4406 19.9214C22.5101 19.8841 22.5702 19.8299 22.6161 19.7634L23.1537 18.9848C23.3427 18.6779 23.5649 18.3953 23.8159 18.1426C23.8736 18.1138 23.9357 18.0963 23.9993 18.0909H25.6404L24.5197 20.7297C24.4355 20.8971 24.3175 21.0431 24.1741 21.1574L20.2841 23.8897C20.1288 23.9825 19.9558 24.0373 19.7777 24.0502H12.2961C12.1744 24.0502 12.0571 24.0974 11.9664 24.183L11.0925 25.0063C11.0824 25.0158 11.0749 25.027 11.0658 25.0371L7.15815 20.7065L9.78601 18.2509C9.9073 18.1591 10.05 18.1038 10.1988 18.0909H14.1735C14.3954 18.0995 14.615 18.1418 14.8255 18.2165L15.7477 18.5854C16.0706 18.7049 16.4092 18.7703 16.7513 18.779H19.2219C19.311 18.7719 19.3991 18.802 19.4674 18.8628C19.5356 18.9236 19.5784 19.0103 19.5866 19.1041V20.3746C19.5784 20.4684 19.5356 20.555 19.4674 20.6158C19.3991 20.6767 19.311 20.7068 19.2219 20.6996H14.2809C14.1497 20.6996 14.0238 20.7546 13.931 20.8524C13.8382 20.9503 13.7861 21.083 13.7861 21.2214C13.7861 21.3597 13.8382 21.4925 13.931 21.5903C14.0238 21.6882 14.1497 21.7431 14.2809 21.7431H19.2219C19.5734 21.7504 19.9134 21.6105 20.1673 21.3539C20.4211 21.0974 20.5682 20.7452 20.5762 20.3746V19.1041C20.5682 18.7334 20.4211 18.3812 20.1673 18.1247C19.9134 17.8682 19.5734 17.7282 19.2219 17.7355H16.7513C16.5293 17.7269 16.3097 17.6846 16.0991 17.6099L15.1769 17.241C14.8541 17.1215 14.5155 17.0561 14.1735 17.0474H10.1988C9.80792 17.0604 9.43203 17.209 9.12932 17.47L6.44936 19.9744C6.21154 19.7739 5.9174 19.6621 5.61295 19.6566C5.3085 19.6511 5.01091 19.7522 4.76672 19.944L4.17623 20.4675C4.07582 20.5566 4.01309 20.6841 4.00183 20.822C3.99057 20.9598 4.03171 21.0968 4.11619 21.2027C4.20068 21.3085 4.3216 21.3747 4.45234 21.3865C4.58308 21.3984 4.71294 21.355 4.81335 21.266L5.40348 20.7429C5.50634 20.7015 5.61927 20.6967 5.72493 20.7294C5.83059 20.7622 5.92316 20.8305 5.98841 20.9241L10.7877 26.2429C10.8846 26.3644 10.9403 26.5165 10.9461 26.6751C10.9519 26.8337 10.9075 26.9898 10.8197 27.1188C10.7285 27.2181 10.6784 27.3516 10.6804 27.4898C10.6824 27.6281 10.7364 27.7599 10.8305 27.8562C10.9245 27.9525 11.051 28.0056 11.1822 28.0036C11.3133 28.0017 11.4383 27.945 11.5298 27.8459C11.7557 27.5694 11.8942 27.2256 11.9262 26.8622C11.9582 26.4988 11.882 26.134 11.7082 25.8184C11.7233 25.8079 11.7379 25.7965 11.7518 25.7844L12.4849 25.0937H19.7777C20.151 25.0812 20.5146 24.9655 20.8322 24.7584L24.7228 22.0256C25.0216 21.8021 25.2624 21.5031 25.423 21.1559L26.6853 18.1839C26.7419 18.0615 26.768 17.9259 26.7612 17.7899C26.7544 17.654 26.715 17.522 26.6465 17.4066C26.5729 17.2918 26.4728 17.1985 26.3556 17.1357C26.2384 17.0729 26.108 17.0425 25.9766 17.0474Z" fill="#234B34"/>
<path d="M26.1104 9.3595C25.9579 9.70114 25.7525 10.0136 25.5026 10.2842C26.4137 10.4074 27.0093 11.171 27.0093 12.265V14.7489C27.0134 14.789 27.0077 14.8295 26.9926 14.8665C26.9776 14.9035 26.9538 14.9359 26.9234 14.9604L25.7058 14.9604V13.9306C25.7058 13.7923 25.6537 13.6596 25.5609 13.5617C25.4681 13.4639 25.3423 13.4089 25.211 13.4089C25.0798 13.4089 24.9539 13.4639 24.8611 13.5617C24.7683 13.6596 24.7162 13.7923 24.7162 13.9306V14.9605L21.4681 14.9606C21.4687 14.9462 21.4721 14.9326 21.4721 14.9181V13.2481C21.4805 12.7545 21.3426 12.2703 21.0775 11.8633C20.8124 11.4562 20.4335 11.1466 19.9935 10.9775C19.8557 11.3126 19.6634 11.6197 19.4253 11.885C19.7275 11.9402 20.0007 12.1084 20.1949 12.3588C20.389 12.6091 20.4911 12.9249 20.4825 13.2481V14.9181C20.4832 14.9261 20.482 14.9342 20.479 14.9416C20.4759 14.949 20.4712 14.9554 20.4651 14.9604L19.3822 14.9606L19.3895 14.1612C19.3895 14.0228 19.3373 13.8901 19.2445 13.7923C19.1517 13.6944 19.0259 13.6394 18.8947 13.6394C18.7634 13.6394 18.6376 13.6944 18.5448 13.7923C18.452 13.8901 18.3998 14.0228 18.3998 14.1612V14.9605L16.1325 14.9606V14.1612C16.1325 14.0228 16.0803 13.8901 15.9875 13.7923C15.8947 13.6944 15.7689 13.6394 15.6377 13.6394C15.5064 13.6394 15.3806 13.6944 15.2878 13.7923C15.195 13.8901 15.1428 14.0228 15.1428 14.1612V14.9181H15.0878C15.078 14.9354 15.0643 14.9499 15.0479 14.9604L14.0676 14.9604C14.0615 14.9556 14.0566 14.9491 14.0535 14.9417C14.0504 14.9343 14.0492 14.9261 14.0499 14.9181V13.2481C14.0413 12.9249 14.1434 12.6091 14.3376 12.3588C14.5317 12.1084 14.8049 11.9402 15.1071 11.885C14.869 11.6197 14.6768 11.3126 14.5389 10.9775C14.0989 11.1466 13.72 11.4562 13.4549 11.8633C13.1899 12.2703 13.0519 12.7545 13.0603 13.2481V14.9181C13.0603 14.9326 13.0638 14.9461 13.0643 14.9604L10.0047 14.9606V13.9306C10.0047 13.7923 9.95256 13.6596 9.85976 13.5617C9.76697 13.4639 9.64111 13.4089 9.50988 13.4089C9.37865 13.4089 9.25279 13.4639 9.15999 13.5617C9.0672 13.6596 9.01506 13.7923 9.01506 13.9306V14.9606L7.79784 14.9606C7.76737 14.9362 7.74341 14.9038 7.7283 14.8667C7.71318 14.8296 7.70743 14.7891 7.71159 14.7489V12.265C7.71159 11.2377 8.23679 10.5016 9.05502 10.3134C8.80889 10.0522 8.60455 9.75068 8.44994 9.42053C7.40796 9.84374 6.72196 10.9105 6.72196 12.265V14.7489C6.70783 15.0653 6.8129 15.3748 7.01425 15.6099C7.2156 15.845 7.49692 15.9866 7.79688 16.0039H26.924C27.224 15.9866 27.5053 15.845 27.7067 15.6099C27.908 15.3748 28.0131 15.0653 27.9989 14.7489V12.265C27.9989 10.8417 27.2425 9.73431 26.1104 9.3595Z" fill="#234B34"/>
<path d="M14.234 9.36084C14.083 9.69838 13.8804 10.0074 13.6343 10.2756C13.8469 10.1432 14.0725 10.0354 14.3072 9.95409C14.3027 9.88401 14.297 9.81427 14.297 9.74302V9.38494C14.2758 9.37725 14.2555 9.36801 14.234 9.36084Z" fill="#234B34"/>
<path d="M20.3262 9.42175C20.2947 9.43467 20.2662 9.45272 20.2353 9.46675V9.74283C20.2353 9.81426 20.2296 9.88419 20.2251 9.95444C20.4596 10.036 20.6851 10.1436 20.898 10.2754C20.6669 10.0236 20.474 9.73564 20.3262 9.42175Z" fill="#234B34"/>
</svg>
