<svg width="16" height="23" viewBox="0 0 16 23" fill="none" xmlns="http://www.w3.org/2000/svg">
<path d="M1 4.73333C1 3.42667 1 2.77333 1.25433 2.274C1.47803 1.83497 1.83497 1.47803 2.274 1.25433C2.77333 1 3.42667 1 4.73333 1H11.2667C12.5733 1 13.2267 1 13.726 1.25433C14.165 1.47803 14.522 1.83497 14.7457 2.274C15 2.77333 15 3.42667 15 4.73333V20.2558C15 20.8228 15 21.1063 14.8822 21.2615C14.8313 21.329 14.7663 21.3846 14.6917 21.4245C14.6172 21.4644 14.5349 21.4876 14.4505 21.4925C14.2557 21.5042 14.02 21.3467 13.5487 21.0328L8 17.3333L2.45133 21.0317C1.98 21.3467 1.74433 21.5042 1.54833 21.4925C1.46414 21.4874 1.38206 21.4641 1.30773 21.4242C1.23341 21.3844 1.16862 21.3288 1.11783 21.2615C1 21.1063 1 20.8228 1 20.2558V4.73333Z" fill="#AB6939" stroke="#AB6939" stroke-width="1.75" stroke-linecap="round" stroke-linejoin="round"/>
</svg>
