<svg width="22" height="25" viewBox="0 0 22 25" fill="none" xmlns="http://www.w3.org/2000/svg">
<path d="M8.34507 14.1734H8.42835C8.76152 14.2567 8.9281 14.5066 8.9281 14.8397V14.923L8.59494 16.6721C8.59494 16.7554 8.51164 16.922 8.42835 16.922L8.34507 17.0053L2.09828 22.2526L2.68131 23.0855L8.9281 21.4197L7.59545 21.0865H7.51216C7.26229 21.0032 7.09571 20.7534 7.09571 20.4202V20.3369V20.2536C7.179 20.0037 7.42887 19.8371 7.76203 19.8371H7.84532L11.2602 20.7534L14.6751 19.8371C15.0083 19.7539 15.2582 19.9205 15.4248 20.1703V20.2536C15.508 20.5868 15.3415 20.8367 15.0916 21.0032H15.0083L13.6757 21.3364L19.9224 23.0022L20.5055 22.1693L14.2587 16.922L14.1754 16.8387C14.0921 16.7554 14.0921 16.6721 14.0088 16.5889V16.5055L13.6757 14.7565V14.6732C13.6757 14.4233 13.8422 14.1734 14.0921 14.0068H14.1754H14.2587H14.342C14.5918 14.0068 14.8417 14.1734 14.925 14.4233V14.5066L15.2582 16.0058L21.7548 21.503L21.8381 21.5863C22.0047 21.7529 22.0047 22.0027 21.9214 22.2526L21.8381 22.3359L20.6721 24.0017L20.5888 24.085C20.4222 24.2516 20.2556 24.3349 20.089 24.2516H20.0057L11.2602 22.0027L2.59803 24.3349C2.34815 24.4181 2.09829 24.3348 1.93171 24.1683L1.84841 24.085L0.682346 22.4192C0.515765 22.1693 0.515767 21.8361 0.765638 21.6695L0.848927 21.5863L7.34558 16.0891L7.67874 14.5899C7.76203 14.34 8.0119 14.1734 8.34507 14.1734ZM11.2602 0.0140381C13.0093 0.0140381 14.4253 1.59655 14.4253 3.59552C14.4253 4.84487 13.8422 5.92768 13.0093 6.594L16.5908 8.17649C16.7574 8.25978 16.924 8.42639 16.924 8.67626V8.75953V13.4238L21.6715 17.1719C21.9214 17.3385 22.0047 17.6716 21.8381 18.0048L21.7548 18.0881C21.5882 18.3379 21.2551 18.4212 20.9219 18.2547L20.8386 18.1713L15.8412 14.2567C15.6746 14.1734 15.6746 14.0069 15.5913 13.8403V13.757V9.17598L11.1769 7.17704L6.76255 9.17598V13.757C6.76255 13.9235 6.67926 14.0901 6.59597 14.1734L6.51268 14.2567L1.51525 18.1713C1.26538 18.4212 0.848928 18.3379 0.599057 18.0881C0.432476 17.8382 0.432476 17.505 0.599057 17.2552L0.682346 17.1719L5.4299 13.4238V8.75953C5.4299 8.50966 5.51319 8.3431 5.67977 8.25981L5.76306 8.17649L9.34455 6.594C8.51164 5.92768 7.92861 4.84487 7.92861 3.59552C8.17848 1.59655 9.51113 0.0140381 11.2602 0.0140381ZM11.2602 1.26339C10.2607 1.26339 9.34455 2.26287 9.34455 3.59552C9.34455 4.92816 10.1775 5.92769 11.2602 5.92769C12.343 5.92769 13.1759 4.92816 13.1759 3.59552C13.1759 2.26287 12.2597 1.26339 11.2602 1.26339Z" fill="#234B34"/>
<path d="M6.84572 2.59595C7.0123 2.84582 6.92901 3.26227 6.67914 3.42885C4.26372 5.01137 2.76449 7.67664 2.76449 10.5918C2.76449 11.508 2.93107 12.4242 3.18095 13.2571C3.26424 13.5903 3.09765 13.9234 2.76449 14.0067C2.43133 14.09 2.09817 13.9234 2.01488 13.5902C1.68172 12.5908 1.51514 11.5913 1.51514 10.5085C1.51514 7.17692 3.18094 4.09515 6.01281 2.26277C6.26269 2.17947 6.59585 2.26279 6.84572 2.59595ZM16.5907 2.42936C19.3393 4.26175 21.0051 7.26019 21.0051 10.5918C21.0051 11.6746 20.8385 12.6741 20.5053 13.6736C20.4221 14.0067 20.0056 14.1733 19.7557 14.09C19.4226 14.0067 19.256 13.5903 19.3393 13.3404C19.5892 12.5075 19.7557 11.5913 19.7557 10.6751C19.7557 7.75991 18.2565 5.09464 15.9244 3.51212C15.6745 3.34554 15.5912 2.92909 15.7578 2.67922C15.9244 2.26277 16.3408 2.17949 16.5907 2.42936Z" fill="#AB6939"/>
</svg>
