<svg width="32" height="33" viewBox="0 0 32 33" fill="none" xmlns="http://www.w3.org/2000/svg">
<path d="M21.625 26.2603V27.6891M21.625 26.2603C21.028 26.2626 20.4396 26.119 19.9108 25.8418C19.3821 25.5647 18.9291 25.1625 18.5912 24.6703M21.625 26.2603C22.222 26.2626 22.8104 26.119 23.3392 25.8418C23.8679 25.5647 24.3209 25.1625 24.6588 24.6703M18.5912 24.6703L17.25 25.5453M18.5912 24.6703C18.1908 24.0872 17.9765 23.3965 17.9765 22.6891C17.9765 21.9817 18.1908 21.291 18.5912 20.7078M24.6588 24.6703L26 25.5453M24.6588 24.6703C25.0592 24.0872 25.2735 23.3965 25.2735 22.6891C25.2735 21.9817 25.0592 21.291 24.6588 20.7078M21.625 19.1178C22.222 19.1156 22.8104 19.2592 23.3392 19.5363C23.8679 19.8135 24.3209 20.2156 24.6588 20.7078M21.625 19.1178C21.028 19.1156 20.4396 19.2592 19.9108 19.5363C19.3821 19.8135 18.9291 20.2156 18.5912 20.7078M21.625 19.1178V17.6891M24.6588 20.7078L26 19.8316M18.5912 20.7078L17.25 19.8328M6 5.18909H26M6 12.6891H26M6 20.1891H12.25" stroke="#234B34" stroke-width="1.2" stroke-linecap="round" stroke-linejoin="round"/>
</svg>
