<svg width="48" height="48" viewBox="0 0 48 48" fill="none" xmlns="http://www.w3.org/2000/svg">
<g clip-path="url(#clip0_1754_3989)">
<path opacity="0.7" d="M0.9375 11.2921H47.0625" stroke="#AB6939" stroke-width="1.2" stroke-miterlimit="10" stroke-linecap="round" stroke-linejoin="round"/>
<path opacity="0.7" d="M40.0435 4.70276V7.52679H34.0271V4.70276H13.9729V7.52679H7.95647V4.70276H3.76153C2.20181 4.70276 0.9375 5.96707 0.9375 7.52679V44.2385C0.9375 45.7982 2.20181 47.0625 3.76153 47.0625H44.2385C45.7982 47.0625 47.0625 45.7982 47.0625 44.2385V7.52679C47.0625 5.96707 45.7982 4.70276 44.2385 4.70276H40.0435Z" stroke="#AB6939" stroke-width="1.2" stroke-miterlimit="10" stroke-linecap="round" stroke-linejoin="round"/>
<path opacity="0.7" d="M13.9729 4.70278V3.94575C13.9729 2.28431 12.6261 0.9375 10.9648 0.9375C9.30345 0.9375 7.95654 2.28431 7.95654 3.94575V4.70278" stroke="#AB6939" stroke-width="1.2" stroke-miterlimit="10" stroke-linecap="round" stroke-linejoin="round"/>
<path opacity="0.7" d="M40.0438 4.70278V3.94575C40.0438 2.28431 38.6968 0.9375 37.0356 0.9375C35.3742 0.9375 34.0273 2.28431 34.0273 3.94575V4.70278" stroke="#AB6939" stroke-width="1.2" stroke-miterlimit="10" stroke-linecap="round" stroke-linejoin="round"/>
<path opacity="0.7" d="M26.3535 42.3559H42.3561" stroke="#AB6939" stroke-width="1.2" stroke-miterlimit="10" stroke-linecap="round" stroke-linejoin="round"/>
<path opacity="0.7" d="M40.4731 42.3559V30.6721" stroke="#AB6939" stroke-width="1.2" stroke-miterlimit="10" stroke-linecap="round" stroke-linejoin="round"/>
<path opacity="0.7" d="M28.2358 42.3559V30.6721" stroke="#AB6939" stroke-width="1.2" stroke-miterlimit="10" stroke-linecap="round" stroke-linejoin="round"/>
<path opacity="0.7" d="M26.3535 32.0013L34.3548 26.3533L42.3561 32.0013" stroke="#AB6939" stroke-width="1.2" stroke-miterlimit="10" stroke-linecap="round" stroke-linejoin="round"/>
<path opacity="0.7" d="M32.0015 42.3559V35.7665H36.7081V42.3559" stroke="#AB6939" stroke-width="1.2" stroke-miterlimit="10" stroke-linecap="round" stroke-linejoin="round"/>
<path opacity="0.7" d="M11.292 15.9987H5.64404V21.6467H11.292V15.9987Z" stroke="#AB6939" stroke-width="1.2" stroke-miterlimit="10" stroke-linecap="round" stroke-linejoin="round"/>
<path opacity="0.7" d="M21.6465 15.9987H15.9985V21.6467H21.6465V15.9987Z" stroke="#AB6939" stroke-width="1.2" stroke-miterlimit="10" stroke-linecap="round" stroke-linejoin="round"/>
<path opacity="0.7" d="M11.292 36.7079H5.64404V42.3559H11.292V36.7079Z" stroke="#AB6939" stroke-width="1.2" stroke-miterlimit="10" stroke-linecap="round" stroke-linejoin="round"/>
<path opacity="0.7" d="M21.6465 36.7079H15.9985V42.3559H21.6465V36.7079Z" stroke="#AB6939" stroke-width="1.2" stroke-miterlimit="10" stroke-linecap="round" stroke-linejoin="round"/>
<path opacity="0.7" d="M11.292 26.3533H5.64404V32.0013H11.292V26.3533Z" stroke="#AB6939" stroke-width="1.2" stroke-miterlimit="10" stroke-linecap="round" stroke-linejoin="round"/>
<path opacity="0.7" d="M21.6465 26.3533H15.9985V32.0013H21.6465V26.3533Z" stroke="#AB6939" stroke-width="1.2" stroke-miterlimit="10" stroke-linecap="round" stroke-linejoin="round"/>
<path opacity="0.7" d="M32.0015 15.9987H26.3535V21.6467H32.0015V15.9987Z" stroke="#AB6939" stroke-width="1.2" stroke-miterlimit="10" stroke-linecap="round" stroke-linejoin="round"/>
<path opacity="0.7" d="M42.356 15.9987H36.708V21.6467H42.356V15.9987Z" stroke="#AB6939" stroke-width="1.2" stroke-miterlimit="10" stroke-linecap="round" stroke-linejoin="round"/>
</g>
<defs>
<clipPath id="clip0_1754_3989">
<rect width="48" height="48" fill="white"/>
</clipPath>
</defs>
</svg>
