<svg width="64" height="64" viewBox="0 0 64 64" fill="none" xmlns="http://www.w3.org/2000/svg">
<g clip-path="url(#clip0_1754_4062)">
<path d="M28.4525 25.626C29.5586 25.2208 30.7535 24.9996 32 24.9996C37.6954 24.9996 42.3125 29.6168 42.3125 35.3121C42.3125 41.0075 37.6954 45.6246 32 45.6246C26.3046 45.6246 21.6875 41.0076 21.6875 35.3121C21.6875 32.1098 23.1471 29.2483 25.4375 27.3568" stroke="white" stroke-width="1.875" stroke-miterlimit="10" stroke-linecap="round" stroke-linejoin="round"/>
<path d="M32 41.8746C35.6244 41.8746 38.5625 38.9365 38.5625 35.3121C38.5625 31.6878 35.6244 28.7496 32 28.7496C28.3756 28.7496 25.4375 31.6878 25.4375 35.3121C25.4375 38.9365 28.3756 41.8746 32 41.8746Z" stroke="white" stroke-width="1.875" stroke-miterlimit="10" stroke-linecap="round" stroke-linejoin="round"/>
<path d="M14.6875 50.6246C12.6164 50.6246 10.9375 48.9458 10.9375 46.8746V28.9754C10.9375 27.6327 11.6546 26.3933 12.8186 25.724C14.4093 24.8096 17.109 23.4965 21.2901 22.1439L23.8644 18.9385C24.4646 18.191 25.3279 17.7001 26.2779 17.5715C27.5782 17.3955 29.6187 17.1875 31.9997 17.1875C34.3807 17.1875 36.4212 17.3955 37.7216 17.5715C38.6716 17.7001 39.5349 18.191 40.1351 18.9385L42.7094 22.1439C46.8905 23.4966 49.5902 24.8097 51.1809 25.7241C52.345 26.3932 53.0621 27.6329 53.0621 28.9755V32.799" stroke="white" stroke-width="1.875" stroke-miterlimit="10" stroke-linecap="round" stroke-linejoin="round"/>
<path d="M53.0625 36.5489V46.8746C53.0625 48.9458 51.3836 50.6246 49.3125 50.6246H18.4375" stroke="white" stroke-width="1.875" stroke-miterlimit="10" stroke-linecap="round" stroke-linejoin="round"/>
<path d="M17.5586 3.45675C17.8407 2.02075 19.1064 0.9375 20.625 0.9375C22.3509 0.9375 23.75 2.33662 23.75 4.0625C23.75 5.78838 22.3509 7.1875 20.625 7.1875C22.3509 7.1875 23.75 8.58662 23.75 10.3125C23.75 12.0384 22.3509 13.4375 20.625 13.4375C19.047 13.4375 17.7422 12.2679 17.5301 10.7484C17.5102 10.6059 17.5 10.4604 17.5 10.3125" stroke="white" stroke-width="1.875" stroke-miterlimit="10" stroke-linecap="round" stroke-linejoin="round"/>
<path d="M31.7567 0.9375C31.7567 0.9375 27.886 3.8165 27.2617 9.25313" stroke="white" stroke-width="1.875" stroke-miterlimit="10" stroke-linecap="round" stroke-linejoin="round"/>
<path d="M30.8756 13.4375C32.8935 13.4375 34.5294 11.8016 34.5294 9.78364C34.5294 7.76566 32.8935 6.12976 30.8756 6.12976C28.8576 6.12976 27.2217 7.76566 27.2217 9.78364C27.2217 11.8016 28.8576 13.4375 30.8756 13.4375Z" stroke="white" stroke-width="1.875" stroke-miterlimit="10" stroke-linecap="round" stroke-linejoin="round"/>
<path d="M44.8483 9.9645C44.8483 11.8826 43.2935 13.4375 41.3753 13.4375C39.4573 13.4375 37.9023 11.8826 37.9023 9.9645V4.4105C37.9023 2.49238 39.4573 0.9375 41.3753 0.9375C43.2935 0.9375 44.8483 2.49238 44.8483 4.4105V9.9645Z" stroke="white" stroke-width="1.875" stroke-miterlimit="10" stroke-linecap="round" stroke-linejoin="round"/>
<path d="M53.3303 38.86C59.3231 40.9825 63.0625 43.9895 63.0625 47.3237C63.0625 53.0412 52.067 57.7962 37.5693 58.78" stroke="white" stroke-width="1.875" stroke-miterlimit="10" stroke-linecap="round" stroke-linejoin="round"/>
<path d="M32 58.9667C14.8446 58.9667 0.9375 53.754 0.9375 47.3239C0.9375 43.9898 4.6765 40.983 10.6685 38.8605" stroke="white" stroke-width="1.875" stroke-miterlimit="10" stroke-linecap="round" stroke-linejoin="round"/>
<path d="M28.4336 63.0625L32.5295 58.9666L28.4336 54.8706" stroke="white" stroke-width="1.875" stroke-miterlimit="10" stroke-linecap="round" stroke-linejoin="round"/>
<path d="M50.0977 4.6875C51.1332 4.6875 51.9727 3.84803 51.9727 2.8125C51.9727 1.77697 51.1332 0.9375 50.0977 0.9375C49.0621 0.9375 48.2227 1.77697 48.2227 2.8125C48.2227 3.84803 49.0621 4.6875 50.0977 4.6875Z" stroke="white" stroke-width="1.875" stroke-miterlimit="10" stroke-linecap="round" stroke-linejoin="round"/>
</g>
<defs>
<clipPath id="clip0_1754_4062">
<rect width="64" height="64" fill="white"/>
</clipPath>
</defs>
</svg>
