<svg width="32" height="33" viewBox="0 0 32 33" fill="none" xmlns="http://www.w3.org/2000/svg">
<path d="M4.71387 21.3378L8.29753 7.70091C8.65335 6.34696 10.0522 5.53027 11.4062 5.88609L14.11 6.59663" stroke="#234B34" stroke-width="0.8" stroke-miterlimit="10" stroke-linecap="round" stroke-linejoin="round"/>
<path d="M11.5229 28.3241L5.89818 26.846C4.54422 26.4902 3.72753 25.0913 4.08335 23.7373L4.29301 22.9395" stroke="#234B34" stroke-width="0.8" stroke-miterlimit="10" stroke-linecap="round" stroke-linejoin="round"/>
<path d="M11.1667 20.2488L9.47854 19.8052C8.70877 19.6029 8.24873 18.8149 8.45098 18.0451C8.65329 17.2753 9.44128 16.8153 10.2111 17.0175L11.1981 17.2769" stroke="#234B34" stroke-width="0.8" stroke-miterlimit="10" stroke-linecap="round" stroke-linejoin="round"/>
<path d="M11.1765 25.3571L8.22317 24.5809C7.4534 24.3786 6.99336 23.5906 7.19561 22.8208C7.39792 22.0511 8.18591 21.591 8.95573 21.7933L11.1977 22.3824" stroke="#234B34" stroke-width="0.8" stroke-miterlimit="10" stroke-linecap="round" stroke-linejoin="round"/>
<path d="M27.9997 13.6925V11.9291C27.9997 11.0873 27.7371 10.2664 27.2485 9.58096L25.4923 7.11726C24.8343 6.19415 23.7706 5.64612 22.637 5.64612H21.1099" stroke="#234B34" stroke-width="0.8" stroke-miterlimit="10" stroke-linecap="round" stroke-linejoin="round"/>
<path d="M18.1361 5.64606H16.6146C15.481 5.64606 14.4173 6.19409 13.7593 7.1172L12.0032 9.5809C11.5145 10.2664 11.252 11.0872 11.252 11.929V26.854C11.252 28.6958 12.7451 30.189 14.587 30.189H24.6648C26.5066 30.189 27.9998 28.6958 27.9998 26.854V15.3485" stroke="#234B34" stroke-width="0.8" stroke-miterlimit="10" stroke-linecap="round" stroke-linejoin="round"/>
<path d="M21.1103 8.68927H21.8099C22.6059 8.68927 23.251 9.33451 23.251 10.1304C23.251 10.9263 22.6058 11.5715 21.8099 11.5715H17.4426C16.6466 11.5715 16.0015 10.9263 16.0015 10.1304C16.0015 9.33445 16.6467 8.68927 17.4426 8.68927H18.1366" stroke="#234B34" stroke-width="0.8" stroke-miterlimit="10" stroke-linecap="round" stroke-linejoin="round"/>
<path d="M18.1851 8.56749V4.20015C18.1851 3.40421 18.8303 2.75903 19.6262 2.75903C20.4221 2.75903 21.0673 3.40427 21.0673 4.20015V8.56749C21.0673 9.36342 20.4221 10.0086 19.6262 10.0086C18.8303 10.0087 18.1851 9.36342 18.1851 8.56749Z" stroke="#234B34" stroke-width="0.8" stroke-miterlimit="10" stroke-linecap="round" stroke-linejoin="round"/>
<path d="M22.2976 14.5818L17.0522 21.8192" stroke="#234B34" stroke-width="0.8" stroke-miterlimit="10" stroke-linecap="round" stroke-linejoin="round"/>
<path d="M17.0227 17.3636C17.764 17.3636 18.3648 16.6654 18.3648 15.804C18.3648 14.9427 17.764 14.2444 17.0227 14.2444C16.2815 14.2444 15.6807 14.9427 15.6807 15.804C15.6807 16.6654 16.2815 17.3636 17.0227 17.3636Z" stroke="#234B34" stroke-width="0.8" stroke-miterlimit="10" stroke-linecap="round" stroke-linejoin="round"/>
<path d="M22.2293 22.3119C22.9705 22.3119 23.5714 21.6137 23.5714 20.7523C23.5714 19.891 22.9705 19.1927 22.2293 19.1927C21.4881 19.1927 20.8872 19.891 20.8872 20.7523C20.8872 21.6137 21.4881 22.3119 22.2293 22.3119Z" stroke="#234B34" stroke-width="0.8" stroke-miterlimit="10" stroke-linecap="round" stroke-linejoin="round"/>
<path d="M16.0405 24.5204V25.2093" stroke="#234B34" stroke-width="0.8" stroke-miterlimit="10" stroke-linecap="round" stroke-linejoin="round"/>
<path d="M23.2114 24.5204V25.2093" stroke="#234B34" stroke-width="0.8" stroke-miterlimit="10" stroke-linecap="round" stroke-linejoin="round"/>
<path d="M18.6807 25.1889C18.9105 25.4527 19.2486 25.6195 19.6259 25.6195C20.0032 25.6195 20.3413 25.4527 20.5712 25.1889" stroke="#234B34" stroke-width="0.8" stroke-miterlimit="10" stroke-linecap="round" stroke-linejoin="round"/>
</svg>
