<svg width="25" height="26" viewBox="0 0 25 26" fill="none" xmlns="http://www.w3.org/2000/svg">
<path d="M14.9506 20.5631C15.3141 20.5631 15.5867 20.8356 15.5867 21.1082V21.1992V23.7436H17.6767H17.7676C18.4946 23.8345 18.4946 25.0158 17.7676 25.1066H17.6767H6.77232H6.68145C5.95449 25.0158 5.95449 23.8345 6.68145 23.7436H6.77232H8.86234V21.1992C8.86234 20.8357 9.13495 20.4722 9.5893 20.4722C9.95278 20.4722 10.2254 20.7449 10.2254 21.0175V21.1082V23.6526H14.3146V21.1082C14.3146 20.8356 14.5872 20.5631 14.9506 20.5631Z" fill="#AB6939"/>
<path d="M22.22 0.753174C23.2196 0.753174 24.0374 1.57101 24.0374 2.57058V19.8359C24.0374 20.8355 23.2196 21.6533 22.22 21.6533H2.22854C1.22896 21.6533 0.411133 20.8355 0.411133 19.8359V2.57058C0.411133 1.57101 1.22896 0.753174 2.22854 0.753174H22.22ZM22.22 2.11623H2.22854C2.0468 2.11623 1.86506 2.29788 1.77419 2.47962V2.57058V19.8359C1.77419 20.0177 1.95593 20.1994 2.13767 20.2903H2.22854H22.22C22.4017 20.2903 22.5835 20.1086 22.6743 19.9269V19.8359V2.57058C22.6743 2.38884 22.4926 2.2071 22.22 2.11623ZM15.4047 3.75194C16.0408 3.75194 16.586 4.02446 16.9495 4.56968L17.0404 4.66064L18.9487 7.8411H19.403C19.4939 7.8411 19.5848 7.75027 19.5848 7.6594C19.5848 7.56853 19.4939 7.47748 19.4939 7.47748H19.403H19.2213C18.8578 7.47748 18.4943 7.20505 18.4943 6.7507C18.4943 6.38722 18.7669 6.11443 19.0395 6.11443H19.1304H19.3121C20.13 6.11443 20.8569 6.84157 20.8569 7.6594C20.8569 8.38636 20.3117 9.02241 19.6756 9.20415C19.8574 9.56763 20.0391 9.93116 20.0391 10.3855V10.5672V13.6567C20.0391 13.7476 20.0391 13.8385 20.0391 13.9294V14.0203V16.8372C20.0391 17.5641 19.4939 18.2002 18.7669 18.2002H18.676H17.4039C16.6769 18.2002 16.0408 17.6551 16.0408 16.9281V16.8372V16.2011H8.1351V16.8372V16.9281C8.04423 17.5642 7.49901 18.1093 6.86292 18.2002H6.77205H5.49986H5.409C4.7729 18.1093 4.22768 17.5642 4.13681 16.9281V16.8372V14.0203V13.9294V13.8384V13.7477V10.6579C4.13681 10.2036 4.22768 9.8402 4.40942 9.38585L4.50029 9.29489C3.77333 9.11315 3.31898 8.56797 3.31898 7.75014C3.31898 6.93231 3.95507 6.29626 4.77291 6.20539H4.86378H5.04551C5.40899 6.20539 5.77248 6.47804 5.77248 6.93239C5.77248 7.29588 5.49987 7.56844 5.22726 7.56844H5.13638H4.95464C4.86377 7.56844 4.77291 7.65927 4.77291 7.75014C4.77291 7.84101 4.86378 7.93183 4.86378 7.93183H4.95464H5.409L7.31727 4.75138C7.68075 4.20615 8.22598 3.84267 8.86207 3.84267H9.0438H15.4047V3.75194ZM18.8578 15.8377C18.5852 16.0195 18.2217 16.1102 17.8582 16.1102H17.6765H17.4947V16.7464H18.7669L18.8578 15.8377ZM5.59073 15.8377V16.7464H6.86292V16.1102H6.68118C6.3177 16.1102 5.95421 16.0195 5.59073 15.8377ZM18.3126 9.11319H6.13596L5.77248 9.74924L5.68161 9.8402H5.86335H6.04508C7.58988 9.93107 8.86207 11.2032 8.86207 12.748C8.86207 13.1115 8.58945 13.384 8.31684 13.384H8.22597H5.59073C5.59073 14.0201 6.04509 14.4745 6.68118 14.5654H6.77205H17.6765C18.3126 14.5654 18.7669 14.1111 18.8578 13.475V13.384H16.3134C15.9499 13.384 15.5865 13.1116 15.5865 12.6573C15.5865 11.1125 16.8586 9.84011 18.4034 9.74924H18.5852H18.7669L18.676 9.6585L18.3126 9.11319ZM13.4964 12.2029C13.8599 12.2029 14.2234 12.4753 14.2234 12.9297C14.2234 13.2932 13.9508 13.566 13.6782 13.566H13.5873H10.8612C10.4977 13.566 10.1342 13.2933 10.1342 12.839C10.1342 12.4755 10.4069 12.2029 10.6795 12.2029H10.7703H13.4964ZM18.8578 11.2942H18.5852C17.9491 11.2942 17.4039 11.6576 17.1313 12.112V12.2029H18.8578V11.2942ZM5.95422 11.2942H5.59073V12.2029H7.40814V12.112C7.13553 11.6576 6.68118 11.2942 6.13596 11.2942H5.95422ZM15.4047 5.11499H9.0438C8.86206 5.11499 8.68032 5.20582 8.58945 5.29669L8.49858 5.38764L6.95379 7.8411H17.4039L15.8591 5.38764C15.8591 5.2059 15.6773 5.11499 15.4047 5.11499Z" fill="#234B34"/>
</svg>
