<svg width="27" height="25" viewBox="0 0 27 25" fill="none" xmlns="http://www.w3.org/2000/svg">
<path d="M19.3171 0.573529L22.6268 21.505C22.7162 21.8628 22.4479 22.2206 22.0901 22.3101C21.7323 22.3995 21.4639 22.1312 21.3745 21.8628V21.7734L17.9753 0.931341C17.8859 0.573538 18.1542 0.215726 18.512 0.126276C18.8699 0.036825 19.2277 0.305177 19.3171 0.573529ZM22.7162 0.484087L26.0259 21.4156C26.1154 21.7734 25.847 22.1312 25.4892 22.2206C25.1314 22.3101 24.8631 22.0417 24.7736 21.7734V21.6839L21.4639 0.841884C21.3745 0.484081 21.6428 0.126284 22.0006 0.0368332C22.269 -0.0526176 22.5373 0.126284 22.7162 0.484087Z" fill="#AB6939"/>
<path d="M26.027 23.0258C26.3848 23.0258 26.7426 23.2941 26.7426 23.7414C26.7426 24.0992 26.4742 24.3675 26.2058 24.3675H26.1164H0.980742C0.622939 24.3675 0.265137 24.0992 0.265137 23.6519C0.265137 23.2941 0.533488 23.0258 0.80184 23.0258H0.891293H26.027ZM8.1368 0.663086C8.4946 0.663086 8.76295 0.93143 8.76295 1.19978V1.28924V21.8629C8.76295 22.2207 8.4946 22.4891 8.22625 22.4891H8.1368H2.76976C2.41195 22.4891 2.1436 22.2207 2.1436 21.9524V21.8629V1.28924C2.1436 0.931435 2.41196 0.663086 2.68031 0.663086H2.76976H8.1368ZM16.1874 0.663086C16.5452 0.663086 16.8135 0.93143 16.8135 1.19978V1.28924V21.8629C16.8135 22.2207 16.5452 22.4891 16.2768 22.4891H16.1874H10.8203C10.4625 22.4891 10.1942 22.2207 10.1942 21.9524V21.8629V1.28924C10.1942 0.931435 10.4625 0.663086 10.7309 0.663086H10.8203H16.1874ZM7.51065 19.4477H3.48537V21.2368H7.51065V19.4477ZM15.5612 1.91539H11.5359V21.1473H15.5612V1.91539ZM7.51065 5.13562H3.48537V18.106H7.51065V5.13562ZM5.45328 6.47738C5.81108 6.47738 6.07943 6.74573 6.07943 7.01408V7.10354V15.4225C6.07943 15.7803 5.81108 16.1381 5.36383 16.1381C5.00603 16.1381 4.73767 15.8697 4.73767 15.6014V15.5119V7.19299C4.82712 6.74574 5.09548 6.47738 5.45328 6.47738ZM7.51065 1.91539H3.48537V3.70441H7.51065V1.91539Z" fill="#234B34"/>
</svg>
