<svg width="27" height="26" viewBox="0 0 27 26" fill="none" xmlns="http://www.w3.org/2000/svg">
<path d="M22.1492 12.7945C23.0545 12.7945 23.8693 13.2471 24.322 14.0619L24.4125 14.243L25.7705 17.1401C25.9516 17.5022 26.0421 17.8644 26.0421 18.2265V18.4075L25.861 20.7614C25.861 21.3951 25.4989 21.8478 25.0462 22.1194L24.9557 22.2099L23.3261 23.0247C23.145 24.2016 22.0586 25.107 20.8817 25.107C19.7048 25.107 18.7994 24.3828 18.5278 23.2964H8.75022C8.47862 24.3828 7.48275 25.107 6.39635 25.107C5.21942 25.107 4.22356 24.2922 3.95196 23.2058L1.77916 22.9342C1.50756 22.9342 1.32649 22.7531 1.23595 22.4815C0.511688 20.1277 1.77916 17.5928 4.13302 16.8685L4.31409 16.7779L4.49516 16.6874L6.39635 16.2347L10.4704 13.7904C11.1946 13.3377 12.0094 13.0661 12.8242 13.0661H13.0958L22.1492 12.7945ZM20.8817 21.3952C20.248 21.3952 19.7048 21.9383 19.7048 22.572C19.7048 23.2058 20.248 23.749 20.8817 23.749C21.5154 23.749 22.0586 23.2058 22.0586 22.572C22.0586 21.9383 21.5154 21.3952 20.8817 21.3952ZM6.39635 21.3952C5.76262 21.3952 5.21942 21.9383 5.21942 22.572C5.21942 23.2058 5.76262 23.749 6.39635 23.749C6.93955 23.749 7.48275 23.2964 7.48275 22.7532V22.6626C7.48275 21.8478 7.03009 21.3952 6.39635 21.3952ZM22.1492 14.1525L17.0793 14.243L16.4456 17.0495L19.4332 16.8685L20.8817 15.9632C21.1533 15.7821 21.5154 15.8726 21.787 16.1442L21.8776 16.2347C22.0586 16.5063 21.9681 16.8685 21.6965 17.1401L21.606 17.2306L19.9764 18.2265C19.8858 18.2265 19.7953 18.317 19.7048 18.317H19.6142L15.5402 18.4981L8.38809 18.6792C8.02595 18.6792 7.66382 18.4075 7.66382 18.0454C7.66382 17.6833 7.93542 17.4117 8.20702 17.3212H8.29755L14.9065 17.1401L15.5402 14.3335L12.9148 14.4241C12.281 14.4241 11.7378 14.6051 11.1946 14.8767L11.0136 14.9672L6.84902 17.5022L6.75849 17.5927H6.66796L4.67622 18.0454C4.58569 18.0454 4.49516 18.1359 4.40462 18.1359C2.95609 18.5886 2.05076 20.0371 2.32236 21.5762V21.6667L3.95196 21.8478C4.22356 20.852 5.21942 20.1277 6.30582 20.1277C7.48276 20.1277 8.38809 20.852 8.65969 21.9384H18.3468C18.6184 20.852 19.6142 20.1277 20.7006 20.1277C21.6965 20.1277 22.6018 20.7614 22.964 21.6667L24.2314 21.033C24.3219 21.033 24.322 20.9424 24.322 20.8519V20.7614L24.503 18.317C24.503 18.136 24.503 18.0454 24.4125 17.8644L24.322 17.7738L22.964 14.8767C22.7829 14.5146 22.4208 14.243 22.0586 14.243L22.1492 14.1525ZM10.923 0.75354C11.9189 0.75354 12.7337 1.56834 12.7337 2.56421V8.90154C12.7337 9.89741 11.9189 10.7122 10.923 10.7122H8.02596V13.1566C8.02596 13.5187 7.75435 13.8809 7.30169 13.8809C6.93955 13.8809 6.66796 13.6093 6.66796 13.3377V13.2472V10.8027H2.77502C1.77916 10.8027 0.964355 9.98792 0.964355 8.99205V2.65472C0.964355 1.65885 1.77916 0.844051 2.77502 0.844051H10.923V0.75354ZM10.923 2.11154H2.77502C2.59396 2.11154 2.41289 2.29263 2.32236 2.4737V2.56421V8.90154C2.32236 9.08261 2.50342 9.26367 2.68449 9.35421H2.77502H10.923C11.1041 9.35421 11.2852 9.17312 11.3757 8.99205V8.90154V2.56421C11.3757 2.38314 11.1946 2.20207 10.923 2.11154Z" fill="#234B34"/>
<path d="M6.03386 5.4612H6.396C6.75813 5.4612 7.02973 5.37071 7.2108 5.28018C7.39187 5.18965 7.48239 5.0086 7.48239 4.737C7.48239 4.4654 7.39187 4.28436 7.2108 4.19382C7.02973 4.10329 6.75813 4.01269 6.396 4.01269H6.03386V5.4612ZM6.03386 6.36653V8.44885H4.85693V3.01685H6.48653C7.30133 3.01685 7.84453 3.1074 8.20666 3.379C8.5688 3.6506 8.74986 4.01276 8.74986 4.64649C8.74986 5.00862 8.65933 5.28013 8.47827 5.4612C8.2972 5.7328 8.0256 5.91396 7.66347 6.00449C8.47827 7.18142 9.11199 7.9962 9.29306 8.35833H7.93506L6.57706 6.27602H6.03386V6.36653Z" fill="#AB6939"/>
</svg>
