<svg width="32" height="33" viewBox="0 0 32 33" fill="none" xmlns="http://www.w3.org/2000/svg">
<path d="M22.293 17.1939V14.5464" stroke="#234B34" stroke-width="0.8" stroke-miterlimit="10" stroke-linecap="round" stroke-linejoin="round"/>
<path d="M9.70703 14.5145V17.1939" stroke="#234B34" stroke-width="0.8" stroke-miterlimit="10" stroke-linecap="round" stroke-linejoin="round"/>
<path d="M13.4723 10.6847L15.9998 8.15724L22.293 14.4505C22.8418 14.9993 23.7315 14.9993 24.2803 14.4505C24.8291 13.9017 24.8291 13.012 24.2803 12.4632L16.9934 5.17622C16.4446 4.62746 15.5549 4.62746 15.0061 5.17622L7.71919 12.4631C7.17043 13.0119 7.17043 13.9017 7.71919 14.4505C8.26796 14.9992 9.15774 14.9992 9.70651 14.4505L12.4479 11.7091" stroke="#234B34" stroke-width="0.8" stroke-miterlimit="10" stroke-linecap="round" stroke-linejoin="round"/>
<path d="M13.6577 17.1939V15.0568" stroke="#234B34" stroke-width="0.8" stroke-miterlimit="10" stroke-linecap="round" stroke-linejoin="round"/>
<path d="M18.3423 15.0568V17.1939" stroke="#234B34" stroke-width="0.8" stroke-miterlimit="10" stroke-linecap="round" stroke-linejoin="round"/>
<path d="M18.3422 15.0088H13.658C13.1406 15.0088 12.7212 14.5893 12.7212 14.072C12.7212 13.5545 13.1406 13.1351 13.658 13.1351H18.3422C18.8596 13.1351 19.279 13.5546 19.279 14.072C19.279 14.5893 18.8596 15.0088 18.3422 15.0088Z" stroke="#234B34" stroke-width="0.8" stroke-miterlimit="10" stroke-linecap="round" stroke-linejoin="round"/>
<path d="M24.045 17.2581H18.7813C17.8234 17.2581 16.89 17.4952 16.0596 17.937" stroke="#234B34" stroke-width="0.8" stroke-miterlimit="10" stroke-linecap="round" stroke-linejoin="round"/>
<path d="M21.834 23.3397C22.3448 23.1517 22.8895 23.0529 23.4443 23.0529H24.0447" stroke="#234B34" stroke-width="0.8" stroke-miterlimit="10" stroke-linecap="round" stroke-linejoin="round"/>
<path d="M19.412 21.0511L17.3161 18.9553C16.2294 17.8686 14.7555 17.2581 13.2186 17.2581H7.93652" stroke="#234B34" stroke-width="0.8" stroke-miterlimit="10" stroke-linecap="round" stroke-linejoin="round"/>
<path d="M14.9429 27.5084L15.8999 28.4654C16.2702 28.8357 16.8735 28.8631 17.2567 28.5062C17.6591 28.1315 17.6675 27.5013 17.2821 27.1159L17.9486 27.7824C18.3189 28.1527 18.9222 28.1801 19.3055 27.8232C19.7078 27.4485 19.7162 26.8184 19.3308 26.4329L19.9974 27.0995C20.3676 27.4697 20.971 27.4972 21.3542 27.1403C21.7566 26.7656 21.765 26.1354 21.3796 25.75L20.6966 25.0671C21.0821 25.4525 21.7122 25.4441 22.087 25.0417C22.4439 24.6585 22.4164 24.0552 22.0461 23.6849L20.4367 22.0754" stroke="#234B34" stroke-width="0.8" stroke-miterlimit="10" stroke-linecap="round" stroke-linejoin="round"/>
<path d="M7.96875 23.0529H9.17918" stroke="#234B34" stroke-width="0.8" stroke-miterlimit="10" stroke-linecap="round" stroke-linejoin="round"/>
<path d="M10.7941 23.3598C10.4169 23.737 10.4169 24.3485 10.7941 24.7256C11.1712 25.1028 11.7828 25.1028 12.1599 24.7256L12.8428 24.0427C13.22 23.6656 13.22 23.054 12.8428 22.6769C12.4657 22.2998 11.8541 22.2998 11.477 22.6769" stroke="#234B34" stroke-width="0.8" stroke-miterlimit="10" stroke-linecap="round" stroke-linejoin="round"/>
<path d="M14.2086 25.4087C14.5857 25.0316 14.5857 24.42 14.2086 24.0429C13.8315 23.6657 13.2199 23.6657 12.8428 24.0429" stroke="#234B34" stroke-width="0.8" stroke-miterlimit="10" stroke-linecap="round" stroke-linejoin="round"/>
<path d="M12.1598 24.7257C11.7827 25.1029 11.7827 25.7144 12.1598 26.0915C12.537 26.4687 13.1485 26.4687 13.5256 26.0915" stroke="#234B34" stroke-width="0.8" stroke-miterlimit="10" stroke-linecap="round" stroke-linejoin="round"/>
<path d="M15.5743 25.4086C15.1971 25.0314 14.5856 25.0314 14.2084 25.4086L13.5255 26.0915C13.1484 26.4687 13.1484 27.0802 13.5255 27.4574C13.9027 27.8345 14.5142 27.8345 14.8914 27.4574L15.5743 26.7745C15.9515 26.3973 15.9515 25.7858 15.5743 25.4086Z" stroke="#234B34" stroke-width="0.8" stroke-miterlimit="10" stroke-linecap="round" stroke-linejoin="round"/>
<path d="M4.96579 24.9844H6.89738C7.43079 24.9844 7.86318 24.552 7.86318 24.0186V17.258C7.86318 16.7246 7.43079 16.2922 6.89738 16.2922H4.96579C4.43239 16.2922 4 16.7246 4 17.258V24.0186C4 24.552 4.43239 24.9844 4.96579 24.9844Z" stroke="#234B34" stroke-width="0.8" stroke-miterlimit="10" stroke-linecap="round" stroke-linejoin="round"/>
<path d="M25.1025 24.9844H27.0341C27.5675 24.9844 27.9999 24.552 27.9999 24.0186V17.258C27.9999 16.7246 27.5675 16.2922 27.0341 16.2922H25.1025C24.5691 16.2922 24.1367 16.7246 24.1367 17.258V24.0186C24.1367 24.552 24.5691 24.9844 25.1025 24.9844Z" stroke="#234B34" stroke-width="0.8" stroke-miterlimit="10" stroke-linecap="round" stroke-linejoin="round"/>
<path d="M11.4771 21.3111C11.0999 20.9339 10.4884 20.9339 10.1113 21.3111L9.42836 21.994C9.05122 22.3711 9.05122 22.9827 9.42836 23.3598C9.80551 23.737 10.417 23.737 10.7942 23.3598L11.4771 22.6769C11.8542 22.2998 11.8542 21.6882 11.4771 21.3111Z" stroke="#234B34" stroke-width="0.8" stroke-miterlimit="10" stroke-linecap="round" stroke-linejoin="round"/>
<path d="M17.282 27.116L15.5747 25.4087" stroke="#234B34" stroke-width="0.8" stroke-miterlimit="10" stroke-linecap="round" stroke-linejoin="round"/>
<path d="M19.3306 26.433L16.9404 24.0427" stroke="#234B34" stroke-width="0.8" stroke-miterlimit="10" stroke-linecap="round" stroke-linejoin="round"/>
<path d="M20.6963 25.0671L18.3062 22.6769" stroke="#234B34" stroke-width="0.8" stroke-miterlimit="10" stroke-linecap="round" stroke-linejoin="round"/>
</svg>
