<svg width="24" height="24" viewBox="0 0 24 24" fill="none" xmlns="http://www.w3.org/2000/svg">
<path d="M11.9871 8.2344e-05C11.8293 0.00163521 11.6734 0.0343987 11.5282 0.0965544C11.383 0.15871 11.2515 0.249029 11.1411 0.362302C11.0307 0.475576 10.9437 0.609666 10.8849 0.756772C10.8262 0.903879 10.7969 1.06113 10.7987 1.21962V10.8653C10.7988 11.1853 10.9254 11.4921 11.1507 11.7183C11.376 11.9445 11.6815 12.0715 12 12.0715C12.3185 12.0715 12.624 11.9445 12.8493 11.7183C13.0746 11.4921 13.2012 11.1853 13.2013 10.8653V1.21962C13.2032 1.05894 13.173 0.899491 13.1127 0.750682C13.0523 0.601873 12.963 0.466649 12.8498 0.353029C12.7367 0.239409 12.6021 0.149703 12.454 0.0890803C12.3058 0.028458 12.1471 -0.00179538 11.9871 8.2344e-05ZM18.9886 2.41797C18.9495 2.41684 18.9104 2.41762 18.8714 2.42033C18.6341 2.44056 18.4082 2.53126 18.2224 2.68082C18.0365 2.83038 17.8992 3.03202 17.8278 3.2602C17.7565 3.48838 17.7543 3.73279 17.8216 3.96222C17.8888 4.19165 18.0226 4.39578 18.2057 4.54866C20.2846 6.32184 21.5998 8.96102 21.5998 11.9247C21.5998 17.276 17.3216 21.5892 12.0059 21.5892C6.69006 21.5892 2.40257 17.276 2.40257 11.9247C2.40258 8.97816 3.70106 6.35691 5.75915 4.58396C5.87906 4.48116 5.97763 4.3556 6.04924 4.21454C6.12084 4.07348 6.16409 3.91965 6.1765 3.7618C6.18891 3.60395 6.17025 3.44527 6.12157 3.29467C6.0729 3.14406 5.99516 3.00457 5.89281 2.88414C5.79046 2.76371 5.6655 2.66471 5.52505 2.59279C5.38461 2.52087 5.23143 2.47736 5.07428 2.4649C4.91712 2.45244 4.75906 2.47122 4.60913 2.52012C4.45919 2.56902 4.3203 2.64707 4.20041 2.74988C1.63127 4.96308 1.12932e-05 8.26197 0 11.9247C-1.07943e-05 18.5768 5.39074 24 12.0059 24C18.621 24 24 18.5768 24 11.9247C24 8.24061 22.3526 4.92815 19.7574 2.71459C19.544 2.52773 19.2717 2.42267 18.9886 2.41797Z" fill="#FE0606"/>
</svg>
