<svg width="32" height="32" viewBox="0 0 32 32" fill="none" xmlns="http://www.w3.org/2000/svg">
<path d="M24.9201 7.36665C22.846 4.70893 19.6127 3 15.9804 3C9.72135 3 4.64746 8.07389 4.64746 14.3329C4.64746 20.5919 9.72135 25.6658 15.9804 25.6658C22.2394 25.6658 27.3133 20.5919 27.3133 14.3329C27.3133 13.4612 27.2148 12.6125 27.0285 11.7972" stroke="#234B34" stroke-width="0.8" stroke-miterlimit="10" stroke-linecap="round" stroke-linejoin="round"/>
<path d="M24.8132 21.4333L27.9102 27.0591C28.1255 27.4497 27.8148 27.9218 27.3709 27.8791L25.1328 27.6628L24.1185 29.6689C23.9171 30.0667 23.3523 30.0767 23.1371 29.6861L20.4263 24.7605V24.76" stroke="#234B34" stroke-width="0.8" stroke-miterlimit="10" stroke-linecap="round" stroke-linejoin="round"/>
<path d="M11.5338 24.76V24.7605L8.82298 29.6861C8.60769 30.0767 8.0429 30.0667 7.84151 29.6689L6.82729 27.6628L4.58917 27.8791C4.14534 27.9219 3.83463 27.4497 4.04987 27.0591L7.14679 21.4333" stroke="#234B34" stroke-width="0.8" stroke-miterlimit="10" stroke-linecap="round" stroke-linejoin="round"/>
<path d="M21.1979 13.739V20.1676C21.1979 20.475 20.9486 20.7243 20.6411 20.7243H11.4401C11.1326 20.7243 10.8833 20.475 10.8833 20.1676V13.739" stroke="#234B34" stroke-width="0.8" stroke-miterlimit="10" stroke-linecap="round" stroke-linejoin="round"/>
<path d="M23.7535 13.4798C23.9517 13.2448 23.9219 12.8936 23.6869 12.6953L17.4764 7.45551L16.3995 6.54688C16.1922 6.37191 15.8889 6.37191 15.6815 6.54683L14.6041 7.45551L8.39354 12.6953C8.15858 12.8936 8.12875 13.2448 8.32695 13.4798L9.04496 14.3311C9.24322 14.5662 9.59453 14.596 9.8296 14.3977L16.0404 9.15785L22.251 14.3975C22.4861 14.5959 22.8373 14.566 23.0356 14.331L23.7535 13.4798Z" stroke="#234B34" stroke-width="0.8" stroke-miterlimit="10" stroke-linecap="round" stroke-linejoin="round"/>
<path d="M14.749 20.7245V18.1697C14.749 17.8977 14.9695 17.6772 15.2416 17.6772H16.8389C17.1109 17.6772 17.3314 17.8977 17.3314 18.1697V20.7245" stroke="#234B34" stroke-width="0.8" stroke-miterlimit="10" stroke-linecap="round" stroke-linejoin="round"/>
<path d="M16.0403 14.8526C16.6553 14.8526 17.1538 14.354 17.1538 13.739C17.1538 13.124 16.6553 12.6255 16.0403 12.6255C15.4253 12.6255 14.9268 13.124 14.9268 13.739C14.9268 14.354 15.4253 14.8526 16.0403 14.8526Z" stroke="#234B34" stroke-width="0.8" stroke-miterlimit="10" stroke-linecap="round" stroke-linejoin="round"/>
</svg>
