<svg width="27" height="25" viewBox="0 0 27 25" fill="none" xmlns="http://www.w3.org/2000/svg">
<path d="M20.8744 0.260498C21.0575 0.260498 21.2407 0.352064 21.3322 0.443618L21.4238 0.535151L26.917 7.85951C27.0086 7.95107 27.0086 8.04265 27.0086 8.22575V8.31729V23.8816C27.0086 24.1562 26.917 24.3393 26.7339 24.4309L26.6424 24.5225L26.5508 24.614H26.4593H26.3677H26.2762H0.732436H0.640883H0.549326H0.457773H0.366216C0.183107 24.5224 0.0915546 24.3393 0 24.1562V24.0647V8.50041C0 8.40885 -1.39838e-06 8.22572 0.0915532 8.13417L0.18311 8.04263L5.67638 0.718271C5.85949 0.535162 6.0426 0.443618 6.22571 0.443618H20.8744V0.260498ZM7.96525 20.6772H3.93685L2.10575 23.1491H7.32436L7.96525 20.6772ZM12.9092 20.6772H9.43012L8.78924 23.1491H13.0007V20.6772H12.9092ZM17.8531 20.6772H14.2825V23.1491H18.6771L17.8531 20.6772ZM23.1633 20.6772H19.318L20.142 23.1491H25.0859L23.1633 20.6772ZM21.6069 3.00713V16.2825L25.7268 21.7758V8.50041L21.6069 3.00713ZM5.58483 3.00713L1.46487 8.50041V21.7758L5.58483 16.2825V3.00713ZM8.88079 17.1981H6.59193L5.0355 19.3038H8.33147L8.88079 17.1981ZM12.9092 17.1981H10.3457L9.79634 19.3038H12.9092V17.1981ZM16.7545 17.1981H14.2825V19.3038H17.3954L16.7545 17.1981ZM20.5082 17.1981H18.2194L18.8602 19.3038H22.0646L20.5082 17.1981ZM20.2336 1.63382H6.95815V15.8248H20.2336V1.63382Z" fill="#234B34"/>
<path d="M13.4587 5.57062C13.6418 5.57062 13.8249 5.5706 13.9165 5.66215L14.008 5.75374L15.9307 7.67636C16.5716 8.31724 15.656 9.23282 15.0151 8.68349L14.9236 8.59191L14.1911 7.85948V12.2541C14.1911 12.6203 13.9165 12.895 13.6418 12.895H13.5503C13.1841 12.895 12.9094 12.6203 12.9094 12.3457V12.2541V7.85948L12.177 8.59191C11.9023 8.86657 11.5361 8.8666 11.2614 8.68349L11.1699 8.59191C10.8952 8.31724 10.8952 7.95102 11.0783 7.67636L11.1699 7.58483L13.0925 5.66215L13.1841 5.57062H13.2756H13.3672H13.4587Z" fill="#AB6939"/>
</svg>
