<svg width="32" height="33" viewBox="0 0 32 33" fill="none" xmlns="http://www.w3.org/2000/svg">
<path d="M16.845 25.177H17.2193C17.7582 25.177 18.1952 25.6135 18.1952 26.1525V27.7137C18.1952 28.2521 17.7582 28.6891 17.2193 28.6891H14.7806C14.2417 28.6891 13.8047 28.2521 13.8047 27.7137V26.1525C13.8047 25.6135 14.2417 25.177 14.7806 25.177H15.1549" stroke="#234B34" stroke-width="0.8" stroke-miterlimit="10" stroke-linecap="round" stroke-linejoin="round"/>
<path d="M13.8047 26.1526H9.85353C9.31452 26.1526 8.87793 25.716 8.87793 25.177V23.3233" stroke="#234B34" stroke-width="0.8" stroke-miterlimit="10" stroke-linecap="round" stroke-linejoin="round"/>
<path d="M7.31689 23.3232V25.1769C7.31689 26.5779 8.45252 27.7135 9.85346 27.7135H13.8047" stroke="#234B34" stroke-width="0.8" stroke-miterlimit="10" stroke-linecap="round" stroke-linejoin="round"/>
<path d="M20.8872 8.67981C20.9374 8.72665 20.9872 8.77494 21.036 8.82371C22.3248 10.1125 23.1219 11.893 23.1219 13.8598V14.0549" stroke="#234B34" stroke-width="0.8" stroke-miterlimit="10" stroke-linecap="round" stroke-linejoin="round"/>
<path d="M8.87793 14.0549V13.8598C8.87793 11.8188 9.73647 9.97832 11.1121 8.67932" stroke="#234B34" stroke-width="0.8" stroke-miterlimit="10" stroke-linecap="round" stroke-linejoin="round"/>
<path d="M21.9917 7.57544C23.6497 9.15688 24.6829 11.3876 24.6829 13.8598V14.055" stroke="#234B34" stroke-width="0.8" stroke-miterlimit="10" stroke-linecap="round" stroke-linejoin="round"/>
<path d="M7.31689 14.055V13.8598C7.31689 11.4617 8.28858 9.29103 9.85983 7.71983C9.9086 7.67105 9.95786 7.62276 10.0081 7.57544" stroke="#234B34" stroke-width="0.8" stroke-miterlimit="10" stroke-linecap="round" stroke-linejoin="round"/>
<path d="M25.8535 22.1037L27.2404 21.7885C27.6846 21.6875 27.9998 21.2927 27.9998 20.8372V16.541C27.9998 16.0855 27.6847 15.6906 27.2404 15.5896L25.8535 15.2744" stroke="#234B34" stroke-width="0.8" stroke-miterlimit="10" stroke-linecap="round" stroke-linejoin="round"/>
<path d="M20.0346 5.62494C20.7565 5.98035 21.4253 6.428 22.0251 6.95194C22.1956 7.10068 22.2043 7.36289 22.0444 7.52273C21.6639 7.90325 21.3833 8.18382 20.8632 8.7039C20.6846 8.88257 20.4006 8.89319 20.2051 8.73287C19.0596 7.7917 17.595 7.22575 16 7.22575C14.405 7.22575 12.9403 7.7917 11.7949 8.73287C11.5993 8.89319 11.3154 8.88257 11.1367 8.7039L9.95508 7.52225C9.79524 7.36241 9.80441 7.10068 9.97439 6.95194C11.5873 5.54333 13.6956 4.68909 16 4.68909C16.8508 4.68909 17.6747 4.80547 18.457 5.02325" stroke="#234B34" stroke-width="0.8" stroke-miterlimit="10" stroke-linecap="round" stroke-linejoin="round"/>
<path d="M22.9268 23.3232H24.878C25.4168 23.3232 25.8536 22.8864 25.8536 22.3476V15.0305C25.8536 14.4917 25.4168 14.0549 24.878 14.0549H22.9268C22.388 14.0549 21.9512 14.4917 21.9512 15.0305V22.3476C21.9512 22.8864 22.388 23.3232 22.9268 23.3232Z" stroke="#234B34" stroke-width="0.8" stroke-miterlimit="10" stroke-linecap="round" stroke-linejoin="round"/>
<path d="M6.14633 22.1037L4.7594 21.7885C4.31519 21.6875 4 21.2926 4 20.8372V16.541C4 16.0855 4.31519 15.6906 4.7594 15.5896L6.14633 15.2744" stroke="#234B34" stroke-width="0.8" stroke-miterlimit="10" stroke-linecap="round" stroke-linejoin="round"/>
<path d="M10.0488 17.8649V22.3477C10.0488 22.8866 9.61176 23.3231 9.07333 23.3231H7.12194C6.58302 23.3231 6.14648 22.8866 6.14648 22.3477V15.0303C6.14648 14.4919 6.58302 14.0549 7.12194 14.0549H9.07333C9.61176 14.0549 10.0488 14.4919 10.0488 15.0303V16.1748" stroke="#234B34" stroke-width="0.8" stroke-miterlimit="10" stroke-linecap="round" stroke-linejoin="round"/>
<path d="M20.3904 16.7379C20.3904 14.3132 18.4248 12.3476 16.0001 12.3476C13.5754 12.3476 11.6099 14.3132 11.6099 16.7379C11.6099 18.7397 12.9497 20.4284 14.7815 20.9566C15.353 22.0665 16.0001 23.3232 16.0001 23.3232L17.2187 20.9566C19.0505 20.4284 20.3904 18.7397 20.3904 16.7379Z" stroke="#234B34" stroke-width="0.8" stroke-miterlimit="10" stroke-linecap="round" stroke-linejoin="round"/>
<path d="M14.6055 15.6226C14.6055 15.5566 14.6101 15.4917 14.6189 15.4282C14.7148 14.7409 15.3117 14.2141 16.0287 14.2286C16.7539 14.2432 17.3547 14.824 17.3924 15.5485C17.434 16.3513 16.7946 17.0171 15.9999 17.0171V17.8355" stroke="#234B34" stroke-width="0.8" stroke-miterlimit="10" stroke-linecap="round" stroke-linejoin="round"/>
<circle cx="15.9999" cy="19.3964" r="0.362173" fill="#234B34" stroke="#234B34" stroke-width="0.8" stroke-miterlimit="10" stroke-linecap="round" stroke-linejoin="round"/>
</svg>
