<svg width="25" height="48" viewBox="0 0 25 48" fill="none" xmlns="http://www.w3.org/2000/svg">
<rect width="25" height="48" fill="#E2E2E2"/>
<rect x="-28" y="-61" width="430" height="932" rx="25" fill="#F2F2F2"/>
<rect x="-28" y="-18" width="430" height="84" fill="white"/>
<path d="M12.4477 23.9616C14.0018 25.1335 15.5516 26.3052 17.1057 27.4771V30.6734C16.2783 30.0518 15.4508 29.4259 14.6235 28.8001C14.5563 28.7497 14.4807 28.7035 14.384 28.6363V47.4108H12.2419V23.8188C12.3133 23.8693 12.3847 23.9113 12.4477 23.9616Z" fill="#AB6939"/>
<path d="M24.8382 33.6681C24.8298 38.1118 24.834 42.5555 24.834 46.9992V47.4234H22.671V47.0622C22.671 43.1141 22.671 39.166 22.6752 35.2137C22.6752 34.9659 22.6206 34.8273 22.4484 34.7012C21.6377 34.0922 20.8272 33.4833 20.0208 32.8742V29.6779C21.5454 30.8287 23.0701 31.9796 24.5989 33.1304C24.7794 33.2649 24.8382 33.4077 24.8382 33.6681Z" fill="#AB6939"/>
<path d="M19.6006 29.3588V32.5551C19.6006 36.982 19.6006 40.8209 19.5964 42.8034C19.5964 42.8831 19.5922 42.9672 19.588 43.0848C19.5124 43.0386 19.4578 43.005 19.4032 42.9672C18.8403 42.5346 18.2818 42.0977 17.7106 41.6777C17.5678 41.5685 17.5216 41.4467 17.5216 41.2366C17.5258 39.4768 17.5258 35.5161 17.5258 30.9926V27.7922C17.5258 20.9417 17.5258 13.6966 17.53 11.1303C17.53 10.8993 17.4838 10.7649 17.3242 10.6431C14.8041 8.71522 12.2841 6.77902 9.76401 4.84696C9.70525 4.80491 9.64217 4.76718 9.54983 4.70418V5.06961C9.54983 8.4339 9.5456 11.7982 9.55399 15.1625C9.55399 15.385 9.50363 15.511 9.35237 15.6202C8.78955 16.036 8.23512 16.4729 7.67654 16.897C7.62618 16.939 7.56733 16.9768 7.48755 17.0314V3.8147e-06C7.56733 0.050369 7.63457 0.0924215 7.69757 0.142787C11.612 3.14164 15.5224 6.14472 19.4369 9.14366C19.5587 9.23607 19.6007 9.33688 19.6007 9.51748C19.5965 12.8607 19.6006 21.5256 19.6006 29.3588Z" fill="#AB6939"/>
<path d="M0.00404825 41.728C0.00404825 39.9861 0.00404825 29.4619 0.00404825 27.7707C0.00404825 26.8227 0.00901866 25.8747 5.39801e-05 24.9269C-0.00190195 24.7237 0.0491137 24.6114 0.18285 24.509C4.23855 21.4039 8.29214 18.2941 12.346 15.1848C12.9579 14.7155 13.5694 14.2455 14.2052 13.7574C14.2052 17.2951 14.2052 20.7994 14.2052 24.3299C14.148 24.2932 14.0912 24.2624 14.0386 24.2222C13.4625 23.7818 12.8892 23.3353 12.3098 22.9024C12.1877 22.8112 12.1446 22.7102 12.1455 22.5288C12.1519 21.3114 12.1488 20.0939 12.1488 18.8764C12.1488 18.766 12.1488 18.6557 12.1488 18.4867C12.0577 18.543 11.9959 18.5739 11.9396 18.6171C8.71495 21.0901 5.49133 23.5652 2.26453 26.0336C2.1277 26.1383 2.07888 26.2523 2.07961 26.4525C2.08507 27.9767 2.07978 38.3339 2.08573 39.858C2.08654 40.0673 2.04066 40.1893 1.89347 40.2976C1.33057 40.7116 0.777455 41.1474 0.220341 41.5744C0.15987 41.6207 0.0971995 41.662 0.00404825 41.728Z" fill="#AB6939"/>
<path d="M6.54263 27.9807H4.73877V29.7846H6.54263V27.9807Z" fill="#AB6939"/>
<path d="M8.97647 27.9807H7.17261V29.7846H8.97647V27.9807Z" fill="#AB6939"/>
<path d="M6.54263 30.5274H4.73877V32.3312H6.54263V30.5274Z" fill="#AB6939"/>
<path d="M8.97647 30.5274H7.17261V32.3312H8.97647V30.5274Z" fill="#AB6939"/>
</svg>
