<svg width="26" height="26" viewBox="0 0 26 26" fill="none" xmlns="http://www.w3.org/2000/svg">
<path d="M21.592 12.7945C22.4974 12.7945 23.3122 13.2471 23.7648 14.0619L23.8554 14.243L25.2134 17.1401C25.3944 17.5022 25.485 17.8644 25.485 18.2265V18.4075L25.3039 20.7614C25.3039 21.3951 24.9418 21.8478 24.4891 22.1194L24.3986 22.2099L22.769 23.0247C22.5879 24.2016 21.5015 25.107 20.3246 25.107C19.1476 25.107 18.2423 24.3828 17.9707 23.2964H8.19309C7.92149 24.3828 6.92563 25.107 5.83923 25.107C4.66229 25.107 3.66643 24.2922 3.39483 23.2058L1.22203 22.9342C0.950428 22.9342 0.769359 22.7531 0.678826 22.4815C-0.0454407 20.1277 1.22203 17.5928 3.57589 16.8685L3.75696 16.7779L3.93803 16.6874L5.83923 16.2347L9.91323 13.7904C10.6375 13.3377 11.4523 13.0661 12.2671 13.0661H12.5387L21.592 12.7945ZM20.3246 21.3952C19.6908 21.3952 19.1476 21.9383 19.1476 22.572C19.1476 23.2058 19.6908 23.749 20.3246 23.749C20.9583 23.749 21.5015 23.2058 21.5015 22.572C21.5015 21.9383 20.9583 21.3952 20.3246 21.3952ZM5.83923 21.3952C5.20549 21.3952 4.66229 21.9383 4.66229 22.572C4.66229 23.2058 5.20549 23.749 5.83923 23.749C6.38243 23.749 6.92562 23.2964 6.92562 22.7532V22.6626C6.92562 21.8478 6.47296 21.3952 5.83923 21.3952ZM21.592 14.1525L16.5222 14.243L15.8884 17.0495L18.876 16.8685L20.3246 15.9632C20.5962 15.7821 20.9583 15.8726 21.2299 16.1442L21.3204 16.2347C21.5015 16.5063 21.411 16.8685 21.1394 17.1401L21.0488 17.2306L19.4192 18.2265C19.3287 18.2265 19.2382 18.317 19.1476 18.317H19.0571L14.9831 18.4981L7.83096 18.6792C7.46882 18.6792 7.10669 18.4075 7.10669 18.0454C7.10669 17.6833 7.37829 17.4117 7.64989 17.3212H7.74042L14.3494 17.1401L14.9831 14.3335L12.3576 14.4241C11.7239 14.4241 11.1807 14.6051 10.6375 14.8767L10.4564 14.9672L6.29189 17.5022L6.20136 17.5927H6.11083L4.11909 18.0454C4.02856 18.0454 3.93803 18.1359 3.8475 18.1359C2.39896 18.5886 1.49363 20.0371 1.76523 21.5762V21.6667L3.39483 21.8478C3.66643 20.852 4.66229 20.1277 5.74869 20.1277C6.92563 20.1277 7.83096 20.852 8.10256 21.9384H17.7896C18.0612 20.852 19.0571 20.1277 20.1435 20.1277C21.1394 20.1277 22.0447 20.7614 22.4068 21.6667L23.6743 21.033C23.7648 21.033 23.7648 20.9424 23.7648 20.8519V20.7614L23.9459 18.317C23.9459 18.136 23.9459 18.0454 23.8554 17.8644L23.7648 17.7738L22.4068 14.8767C22.2258 14.5146 21.8636 14.243 21.5015 14.243L21.592 14.1525ZM10.3659 0.75354C11.3618 0.75354 12.1766 1.56834 12.1766 2.56421V8.90154C12.1766 9.89741 11.3618 10.7122 10.3659 10.7122H7.46883V13.1566C7.46883 13.5187 7.19723 13.8809 6.74456 13.8809C6.38243 13.8809 6.11083 13.6093 6.11083 13.3377V13.2472V10.8027H2.21789C1.22203 10.8027 0.407227 9.98792 0.407227 8.99205V2.65472C0.407227 1.65885 1.22203 0.844051 2.21789 0.844051H10.3659V0.75354ZM10.3659 2.11154H2.21789C2.03683 2.11154 1.85576 2.29263 1.76523 2.4737V2.56421V8.90154C1.76523 9.08261 1.94629 9.26367 2.12736 9.35421H2.21789H10.3659C10.547 9.35421 10.728 9.17312 10.8186 8.99205V8.90154V2.56421C10.8186 2.38314 10.6375 2.20207 10.3659 2.11154Z" fill="#234B34"/>
<path d="M5.47673 5.4612H5.83887C6.201 5.4612 6.4726 5.37071 6.65367 5.28018C6.83474 5.18965 6.92527 5.0086 6.92527 4.737C6.92527 4.4654 6.83474 4.28436 6.65367 4.19382C6.4726 4.10329 6.201 4.01269 5.83887 4.01269H5.47673V5.4612ZM5.47673 6.36653V8.44885H4.2998V3.01685H5.9294C6.7442 3.01685 7.2874 3.1074 7.64954 3.379C8.01167 3.6506 8.19273 4.01276 8.19273 4.64649C8.19273 5.00862 8.1022 5.28013 7.92114 5.4612C7.74007 5.7328 7.46847 5.91396 7.10634 6.00449C7.92114 7.18142 8.55487 7.9962 8.73593 8.35833H7.37793L6.01993 6.27602H5.47673V6.36653Z" fill="#AB6939"/>
</svg>
